<svg width="935" height="321" viewBox="0 0 935 321" fill="none" xmlns="http://www.w3.org/2000/svg">
<path d="M775.608 23.04L828.492 0H876.418L775.608 44.1504L606.47 117.727L699.502 143.617C641.701 197.125 568.89 241.934 488.998 273.22C409.774 304.268 327.097 320.676 249.899 320.676H249.788C220.259 320.676 191.375 318.215 163.938 313.352L161.266 312.741L160.431 312.549L159.763 312.401L159.629 312.369C157.647 311.919 155.765 311.502 153.939 311.136L153.327 310.969L152.324 310.75C143.817 308.874 137.092 307.39 126.124 304.75C74.414 290.385 32.2022 267.335 0.601562 236.241L0 235.6V10C0 4.47715 4.47715 0 10 0H775.608V23.04ZM934.926 170.92L903.574 0H927.582L934.926 170.92Z" fill="#E4E4E4"/>
</svg>
