<svg preserveAspectRatio="none" width="100%" height="100%" overflow="visible" style="display: block;" viewBox="0 0 701.6 433" fill="none" xmlns="http://www.w3.org/2000/svg">
<path id="Intersect" d="M701.6 238.474L676.557 2.15625L582.042 73.8047L455.115 169.378L524.93 203.008C481.554 272.512 426.914 330.717 366.96 371.356C307.507 411.687 245.464 433 187.532 433H187.449C165.289 433 143.613 429.804 123.024 423.487L121.02 422.694L120.393 422.444L119.892 422.252L119.791 422.21C118.304 421.626 116.892 421.084 115.521 420.608L115.062 420.392L114.31 420.107C107.926 417.671 102.878 415.743 94.6475 412.313C55.8426 393.654 24.1653 363.713 0.451172 323.324L0 322.489V10C1.03237e-05 5.38999 3.12005 1.51064 7.36328 0.353516H582.042V46.3838L643.549 0H695.681L701.6 238.474Z" fill="#E4E4E4"/>
</svg>
