<svg preserveAspectRatio="none" width="100%" height="100%" overflow="visible" style="display: block;" viewBox="0 0 934.926 577" fill="none" xmlns="http://www.w3.org/2000/svg">
<path id="Intersect" d="M934.926 317.781L901.555 2.87305L775.608 98.3496L606.47 225.707L699.502 270.521C641.701 363.14 568.89 440.702 488.998 494.856C409.774 548.599 327.097 577 249.899 577H249.788C220.259 577 191.375 572.741 163.938 564.323L161.266 563.267L160.431 562.934L159.763 562.678L159.629 562.622C157.647 561.844 155.765 561.121 153.939 560.487L153.327 560.198L152.324 559.82C143.817 556.573 137.092 554.004 126.124 549.434C74.414 524.569 32.2022 484.67 0.601562 430.85L0 429.737V10C0 5.53615 2.92513 1.75647 6.96289 0.470703H775.608V61.8096L857.569 0H927.038L934.926 317.781Z" fill="black"/>
</svg>
