<svg width="180" height="53" viewBox="0 0 180 53" fill="none" xmlns="http://www.w3.org/2000/svg">
<g clip-path="url(#clip0_89_1484)">
<path fill-rule="evenodd" clip-rule="evenodd" d="M49.7321 31.6028V53H0V40.0001L0.0521092 39.9837C2.2536 43.0754 5.05972 45.5375 8.44191 47.1667C21.1548 53.2916 38.0878 45.7492 49.7378 29.9842L49.7321 31.6028Z" fill="white"/>
<path fill-rule="evenodd" clip-rule="evenodd" d="M16.0242 40.2953H16.0171C14.124 40.2953 12.2723 40.0222 10.5133 39.4824L10.342 39.4147L10.2885 39.3933L10.2456 39.3769L10.2371 39.3733C10.11 39.3234 9.98938 39.2771 9.87231 39.2364L9.83305 39.2179L9.7688 39.1937C9.22342 38.9855 8.79226 38.8207 8.08913 38.5277C4.77404 36.9334 2.06785 34.375 0.0419661 30.924L0.00341797 30.8527V3.3277H49.7269V7.26075L59.3531 0L59.9406 23.6739L57.8012 3.48171L49.7269 9.60376L38.8836 17.7701L44.8478 20.6436C41.1422 26.5824 36.4744 31.5557 31.3526 35.0282C26.2736 38.4742 20.9733 40.2953 16.0242 40.2953ZM2.79812 23.8279H2.72174C2.48403 23.8279 2.32484 23.9734 2.27415 24.2365L1.90867 26.3328V26.397C1.90867 26.5717 2.0443 26.7114 2.25988 26.762C3.47627 27.08 4.79902 27.2348 6.30737 27.2348C8.22618 27.2348 9.84519 26.7941 10.9902 25.9606C12.3051 25.0094 12.9711 23.5926 12.9711 21.7487C12.9711 20.446 12.2223 19.3259 10.6818 18.3248L8.19977 16.697C7.33745 16.128 7.10331 15.9091 7.10331 15.4549C7.10331 14.3169 7.86498 14.0844 9.00927 14.0844C9.92371 14.0844 11.3964 14.16 13.2652 14.3026C13.3343 14.3027 13.4034 14.3063 13.4722 14.3133L13.4915 14.3169L13.5165 14.3204H13.5515C13.782 14.3204 13.9369 14.1907 13.989 13.9554L14.3724 11.7906V11.705C14.3724 11.5553 14.2767 11.4476 14.1104 11.4077C13.3252 11.1888 11.2051 10.9357 9.6503 10.9357C7.8143 10.9357 6.34521 11.2758 5.28729 11.9482C4.0038 12.7618 3.35277 14.0488 3.35277 15.7736C3.35277 17.1077 4.03592 18.287 5.27658 19.0934L7.92066 20.8289C8.69161 21.3302 9.03426 21.793 9.03426 22.3292C9.03426 23.4942 8.29258 24.0853 6.82777 24.0853C5.98757 24.0853 3.6483 23.9135 2.79812 23.8279ZM26.5456 23.8244H26.4806C26.2407 23.8244 26.0723 23.977 26.0287 24.2322L25.6632 26.3328V26.3934C25.6632 26.5717 25.796 26.7114 26.008 26.7585C27.2023 27.0765 28.5279 27.2312 30.0598 27.2312C31.9751 27.2312 33.5955 26.7913 34.7441 25.9592C36.059 25.0066 36.7264 23.5898 36.7264 21.7487C36.7264 20.4475 35.9769 19.3266 34.4342 18.3212L31.9479 16.6927C31.0849 16.1294 30.8508 15.9112 30.8508 15.4513C30.8508 14.314 31.6146 14.0809 32.761 14.0809C34.063 14.0809 36.1296 14.2334 37.0112 14.2983H37.0176L37.189 14.3112L37.2639 14.3169H37.3067C37.5416 14.3169 37.6944 14.1871 37.7365 13.9518L38.1198 11.7906V11.705C38.1198 11.5503 38.032 11.4462 37.865 11.4042C37.0776 11.1853 34.9589 10.9314 33.4049 10.9314C31.5717 10.9314 30.1034 11.2737 29.039 11.9475C27.7527 12.7625 27.1002 14.0495 27.1002 15.7736C27.1002 17.1034 27.7862 18.2827 29.0319 19.0934L31.6681 20.8261C32.4391 21.3281 32.7817 21.7908 32.7817 22.3249C32.7817 23.4914 32.04 24.0825 30.5759 24.0825C29.7471 24.0825 27.4022 23.9106 26.5456 23.8244ZM22.064 10.9357C20.7848 10.9357 19.3257 11.0284 18.205 11.7186C17.0736 12.4131 16.3633 13.6623 16.0342 15.5369L14.0854 26.6123V26.6979C14.0854 26.9011 14.2253 27.038 14.4331 27.038H17.2206C17.4526 27.038 17.6896 26.8383 17.7282 26.6123L18.8289 20.3569H24.3783C24.4994 20.3527 24.6155 20.3082 24.7083 20.2304C24.801 20.1526 24.865 20.046 24.8902 19.9277L25.2378 17.8955V17.81C25.2378 17.6032 25.0979 17.4656 24.8902 17.4656H19.3414L19.6812 15.5369C19.8697 14.4481 20.2823 14.0809 21.3152 14.0809H25.6632C25.8931 14.0809 26.1101 13.8933 26.1587 13.6545L26.5241 11.6623C26.5241 11.6337 26.5277 11.6102 26.5341 11.5938C26.5353 11.588 26.537 11.5823 26.5391 11.5767L26.5406 11.5703C26.5432 11.5654 26.5449 11.5601 26.5456 11.5546C26.5456 11.3714 26.4299 11.2751 26.1587 11.2323L26.0944 11.2216C26.083 11.2197 26.0716 11.2181 26.0601 11.2166L26.0387 11.2131L25.9752 11.2038C25.2664 11.0968 24.1963 10.9357 22.064 10.9357Z" fill="white"/>
<path fill-rule="evenodd" clip-rule="evenodd" d="M84.405 51.226C84.405 51.6488 84.2651 52.0039 83.9867 52.2892C83.7083 52.5758 83.2307 52.7184 82.5562 52.7184C82.1671 52.7184 81.7524 52.6842 81.3141 52.6157C81.2555 52.6064 81.217 52.5929 81.1984 52.5744C81.1806 52.5565 81.1713 52.5252 81.1713 52.4817V52.1822C81.1713 52.1016 81.2141 52.061 81.2998 52.061H81.3212C81.6653 52.0909 82.0765 52.1052 82.5562 52.1052C82.9773 52.1052 83.2729 52.0303 83.4406 51.8806C83.6084 51.7316 83.6926 51.5127 83.6926 51.226C83.6952 51.0473 83.6285 50.8746 83.5063 50.744C83.3821 50.6078 83.1458 50.4339 82.7975 50.2221L82.07 49.78C81.7103 49.5618 81.4469 49.3451 81.2834 49.1333C81.1179 48.9184 81.0307 48.6535 81.0364 48.3825C81.0364 47.9425 81.1906 47.6124 81.4982 47.3914C81.8066 47.1718 82.2492 47.0612 82.826 47.0612C83.131 47.0625 83.4359 47.0768 83.7397 47.104C83.8618 47.114 83.991 47.1304 84.1273 47.1525C84.213 47.1696 84.2558 47.211 84.2558 47.2766V47.5974C84.2558 47.6787 84.213 47.7186 84.1273 47.7186H84.1131C83.6849 47.6897 83.2559 47.6749 82.8267 47.6744C82.4298 47.6744 82.1471 47.7265 81.9787 47.8299C81.8109 47.9333 81.7267 48.1172 81.7267 48.3825C81.7267 48.5507 81.7866 48.6976 81.9059 48.8245C82.0251 48.9508 82.2378 49.1055 82.5412 49.288L83.2286 49.7001C83.5141 49.8706 83.7426 50.0338 83.916 50.1921C84.0888 50.3476 84.213 50.5094 84.2901 50.6749C84.3672 50.8403 84.405 51.0242 84.405 51.226Z" fill="white"/>
<path fill-rule="evenodd" clip-rule="evenodd" d="M91.7604 52.5765C91.7604 52.6392 91.7347 52.6749 91.6833 52.682C91.4499 52.7062 90.9637 52.7176 90.2256 52.7176C89.6924 52.7176 89.2926 52.6093 89.0285 52.3896C88.7644 52.1707 88.6323 51.8171 88.6323 51.3279V48.4523C88.6323 47.9653 88.7644 47.6124 89.0271 47.3913C89.2898 47.1717 89.6895 47.0612 90.2256 47.0612C90.7119 47.0603 91.198 47.0751 91.6833 47.1054C91.7076 47.1075 91.7261 47.1197 91.7404 47.1403C91.7533 47.161 91.7604 47.1845 91.7604 47.2116V47.5831C91.7604 47.6445 91.7318 47.6744 91.6761 47.6744H90.2328C89.9701 47.6744 89.7723 47.7001 89.6403 47.7493C89.5096 47.7992 89.4218 47.8783 89.3776 47.9867C89.3347 48.0951 89.3119 48.2505 89.3119 48.4523V49.4919H91.6105C91.6519 49.4919 91.6869 49.5062 91.7161 49.5361C91.7454 49.5646 91.7604 49.6003 91.7604 49.6416V49.9226C91.7607 49.9427 91.7565 49.9626 91.7483 49.981C91.74 49.9993 91.7278 50.0157 91.7126 50.0288C91.6854 50.0559 91.6489 50.0715 91.6105 50.0723H89.3119V51.3279C89.3119 51.5297 89.334 51.6845 89.3776 51.7928C89.4218 51.9019 89.5096 51.9804 89.641 52.0303C89.7723 52.0802 89.9694 52.1051 90.2335 52.1051H91.6761C91.7318 52.1051 91.7604 52.1358 91.7604 52.1964V52.5765Z" fill="white"/>
<path fill-rule="evenodd" clip-rule="evenodd" d="M99.8381 52.5943C99.8381 52.6428 99.8067 52.667 99.7439 52.667H99.217C99.1714 52.667 99.1407 52.6634 99.1257 52.6542C99.0968 52.6299 99.0722 52.601 99.0529 52.5686L97.7158 50.3425H97.5181C97.3425 50.3425 97.0684 50.3354 96.6965 50.3212V52.5173C96.698 52.5564 96.6851 52.5948 96.6601 52.6249C96.6479 52.6389 96.6327 52.6499 96.6156 52.6572C96.5985 52.6645 96.5801 52.6678 96.5615 52.667H96.1589C96.1407 52.6674 96.1225 52.6639 96.1058 52.6566C96.089 52.6494 96.074 52.6386 96.0619 52.6249C96.0362 52.5953 96.0227 52.5571 96.024 52.518V47.2844C96.024 47.1867 96.0833 47.1318 96.2025 47.1204C96.394 47.1002 96.5861 47.0859 96.7786 47.0776C97.0134 47.0669 97.2604 47.0612 97.5181 47.0612C97.935 47.0612 98.299 47.1132 98.6103 47.2159C98.9222 47.32 99.1678 47.4926 99.3477 47.7329C99.5261 47.9739 99.6154 48.2855 99.6154 48.6669V48.7218C99.6154 49.1211 99.5083 49.4484 99.2963 49.7037C99.0821 49.9597 98.7966 50.1343 98.4397 50.2292L99.8174 52.5251C99.8317 52.5465 99.8381 52.57 99.8381 52.5943ZM98.9394 48.7218V48.6676C98.9394 48.4266 98.8872 48.2327 98.7823 48.0851C98.6774 47.9382 98.5218 47.8327 98.3147 47.7692C98.1077 47.7065 97.8422 47.6744 97.5181 47.6744C97.0898 47.6744 96.8157 47.6815 96.6965 47.6965V49.7436C96.7479 49.7436 96.8821 49.7465 97.1019 49.7507C97.3211 49.7564 97.4603 49.7586 97.5181 49.7586C97.8393 49.7586 98.1034 49.7272 98.3097 49.6659C98.5153 49.6031 98.6717 49.4969 98.7795 49.345C98.8865 49.1924 98.9394 48.9849 98.9394 48.7218Z" fill="white"/>
<path fill-rule="evenodd" clip-rule="evenodd" d="M107.694 47.2402C107.695 47.2553 107.693 47.2704 107.687 47.2844L106.31 52.1529C106.251 52.3647 106.152 52.5116 106.011 52.595C105.87 52.6777 105.709 52.7203 105.546 52.7184C105.144 52.7184 104.89 52.5294 104.786 52.1529L103.401 47.2844C103.396 47.2703 103.393 47.2553 103.394 47.2402C103.394 47.201 103.406 47.1703 103.432 47.1475C103.457 47.1244 103.491 47.1117 103.525 47.1118H103.96C103.992 47.1118 104.02 47.1239 104.046 47.1453C104.072 47.1667 104.088 47.1938 104.096 47.2259L105.396 51.9889C105.43 52.093 105.48 52.1458 105.546 52.1458C105.611 52.1458 105.659 52.093 105.689 51.9889L107 47.2259C107.02 47.1503 107.062 47.1118 107.128 47.1118H107.566C107.652 47.1118 107.694 47.1546 107.694 47.2402Z" fill="white"/>
<path fill-rule="evenodd" clip-rule="evenodd" d="M112.561 52.5173C112.561 52.5555 112.547 52.5926 112.522 52.6214C112.511 52.6359 112.496 52.6476 112.479 52.6555C112.463 52.6634 112.444 52.6674 112.426 52.667H112.013C111.996 52.6668 111.978 52.663 111.962 52.6557C111.946 52.6485 111.932 52.638 111.92 52.6249C111.906 52.611 111.895 52.5943 111.888 52.5759C111.88 52.5575 111.877 52.5378 111.878 52.518V47.2544C111.878 47.218 111.892 47.183 111.917 47.1567C111.929 47.1429 111.944 47.1318 111.96 47.1241C111.977 47.1165 111.995 47.1125 112.013 47.1125H112.426C112.444 47.1129 112.462 47.1169 112.479 47.1243C112.496 47.1317 112.511 47.1423 112.523 47.1556C112.536 47.1688 112.546 47.1845 112.552 47.2015C112.559 47.2186 112.562 47.2369 112.561 47.2551V52.5173H112.561Z" fill="white"/>
<path fill-rule="evenodd" clip-rule="evenodd" d="M120.304 52.4738C120.304 52.5565 120.254 52.6064 120.156 52.6235C119.816 52.6863 119.402 52.7184 118.914 52.7184C118.672 52.7184 118.432 52.6798 118.197 52.6014C117.961 52.5233 117.745 52.3951 117.563 52.2257C117.375 52.0531 117.225 51.815 117.11 51.5126C116.996 51.2089 116.938 50.8424 116.938 50.4117V49.3714C116.938 48.8024 117.033 48.3446 117.225 47.9995C117.416 47.6537 117.659 47.4113 117.954 47.2715C118.254 47.1302 118.582 47.0583 118.914 47.0612C119.271 47.0612 119.689 47.1018 120.172 47.1824C120.249 47.1917 120.289 47.2231 120.289 47.2765V47.6601C120.289 47.7136 120.259 47.74 120.201 47.74H120.179C119.761 47.7024 119.342 47.6805 118.922 47.6744C118.52 47.6744 118.202 47.8077 117.969 48.0744C117.734 48.3404 117.617 48.7732 117.617 49.3721V50.4117C117.617 51.0057 117.735 51.4363 117.971 51.7037C118.205 51.9718 118.522 52.1051 118.922 52.1051C119.266 52.1051 119.677 52.0859 120.157 52.0467H120.186C120.264 52.0467 120.304 52.0873 120.304 52.1672V52.4738Z" fill="white"/>
<path fill-rule="evenodd" clip-rule="evenodd" d="M127.549 52.5765C127.549 52.6392 127.523 52.6749 127.472 52.682C127.238 52.7062 126.752 52.7176 126.014 52.7176C125.48 52.7176 125.081 52.6093 124.817 52.3896C124.553 52.1707 124.421 51.8171 124.421 51.3279V48.4523C124.421 47.9653 124.552 47.6124 124.816 47.3913C125.078 47.1717 125.478 47.0612 126.014 47.0612C126.5 47.0603 126.987 47.0751 127.472 47.1054C127.496 47.1075 127.515 47.1197 127.529 47.1403C127.543 47.1616 127.549 47.1864 127.549 47.2116V47.5831C127.549 47.6445 127.52 47.6744 127.464 47.6744H126.021C125.758 47.6744 125.561 47.7001 125.429 47.7493C125.298 47.7992 125.21 47.8783 125.166 47.9867C125.123 48.0951 125.1 48.2505 125.1 48.4523V49.4919H127.399C127.44 49.4919 127.475 49.5062 127.505 49.5361C127.533 49.5646 127.549 49.6003 127.549 49.6416V49.9226C127.549 49.9427 127.545 49.9626 127.537 49.981C127.529 49.9993 127.516 50.0157 127.501 50.0288C127.474 50.0561 127.437 50.0717 127.398 50.0723H125.1V51.3279C125.1 51.5297 125.123 51.6845 125.166 51.7928C125.21 51.9019 125.298 51.9804 125.43 52.0303C125.561 52.0802 125.758 52.1051 126.021 52.1051H127.464C127.521 52.1051 127.549 52.1358 127.549 52.1964V52.5765Z" fill="white"/>
<path fill-rule="evenodd" clip-rule="evenodd" d="M134.968 51.226C134.968 51.6488 134.829 52.0039 134.55 52.2891C134.271 52.5758 133.795 52.7183 133.12 52.7183C132.73 52.7183 132.316 52.6841 131.878 52.6157C131.819 52.6064 131.781 52.5929 131.762 52.5743C131.744 52.5565 131.735 52.5251 131.735 52.4816V52.1822C131.735 52.1016 131.778 52.0609 131.863 52.0609H131.885C132.228 52.0909 132.64 52.1051 133.12 52.1051C133.542 52.1051 133.836 52.0303 134.005 51.8805C134.172 51.7315 134.256 51.5126 134.256 51.226C134.259 51.0474 134.192 50.8746 134.07 50.744C133.946 50.6078 133.709 50.4338 133.361 50.222L132.634 49.78C132.274 49.5618 132.011 49.345 131.847 49.1332C131.681 48.9183 131.594 48.6535 131.6 48.3824C131.6 47.9425 131.754 47.6124 132.062 47.3913C132.37 47.1717 132.813 47.0612 133.389 47.0612C133.694 47.0624 133.999 47.0767 134.303 47.104C134.426 47.114 134.554 47.1304 134.691 47.1525C134.776 47.1696 134.819 47.2109 134.819 47.2765V47.5974C134.819 47.6787 134.776 47.7186 134.691 47.7186H134.677C134.248 47.6896 133.819 47.6749 133.39 47.6744C132.993 47.6744 132.711 47.7265 132.542 47.8298C132.374 47.9332 132.291 48.1172 132.291 48.3824C132.291 48.5507 132.35 48.6976 132.469 48.8245C132.589 48.9507 132.801 49.1054 133.105 49.288L133.792 49.7001C134.078 49.8705 134.306 50.0338 134.479 50.1921C134.652 50.3475 134.777 50.5094 134.854 50.6748C134.931 50.8402 134.968 51.0242 134.968 51.226Z" fill="white"/>
<path fill-rule="evenodd" clip-rule="evenodd" d="M147.637 52.5465C147.637 52.6107 147.611 52.6456 147.559 52.6528C147.471 52.667 147.277 52.6813 146.973 52.6962C146.671 52.7105 146.379 52.7176 146.102 52.7176C145.793 52.7176 145.522 52.6855 145.291 52.6199C145.061 52.5552 144.861 52.4113 144.727 52.2135C144.581 52.0075 144.508 51.7123 144.508 51.3279V47.2623C144.508 47.2259 144.523 47.1917 144.553 47.1603C144.566 47.1452 144.582 47.1331 144.601 47.1248C144.619 47.1166 144.639 47.1124 144.659 47.1125H145.039C145.08 47.1125 145.115 47.1268 145.144 47.1567C145.174 47.1853 145.189 47.2209 145.189 47.2623V51.3279C145.189 51.5297 145.21 51.6845 145.254 51.7928C145.298 51.9019 145.386 51.9804 145.517 52.0303C145.649 52.0802 145.845 52.1051 146.109 52.1051H147.553C147.609 52.1051 147.636 52.1358 147.636 52.1964V52.5465H147.637Z" fill="white"/>
<path fill-rule="evenodd" clip-rule="evenodd" d="M154.455 47.576C154.455 47.6566 154.408 47.6972 154.312 47.6972H152.851V52.5173C152.852 52.5564 152.839 52.5949 152.814 52.6249C152.803 52.6388 152.788 52.6499 152.771 52.6573C152.755 52.6647 152.737 52.6683 152.719 52.6677H152.306C152.267 52.6677 152.235 52.6535 152.21 52.6249C152.184 52.5955 152.17 52.5573 152.171 52.518V47.6965H150.713C150.613 47.6965 150.563 47.6566 150.563 47.576V47.248C150.563 47.2138 150.578 47.1824 150.606 47.1553C150.62 47.1412 150.637 47.1302 150.655 47.1228C150.674 47.1155 150.694 47.112 150.713 47.1125H154.313C154.351 47.1125 154.384 47.1254 154.413 47.1503C154.426 47.1626 154.437 47.1776 154.444 47.1943C154.451 47.211 154.455 47.2291 154.455 47.2473V47.576Z" fill="white"/>
<path fill-rule="evenodd" clip-rule="evenodd" d="M162.354 50.3939C162.354 51.1746 162.154 51.7572 161.755 52.1422C161.355 52.5265 160.799 52.7183 160.086 52.7183C159.895 52.7183 159.7 52.7141 159.499 52.7055C159.299 52.697 159.145 52.6884 159.04 52.6806C158.935 52.6713 158.831 52.6595 158.726 52.6449C158.621 52.6306 158.569 52.5686 158.569 52.4595V47.3243C158.569 47.2174 158.621 47.1539 158.726 47.1346C158.831 47.1204 158.936 47.109 159.04 47.099C159.145 47.0919 159.298 47.0826 159.499 47.0747C159.7 47.0662 159.895 47.0612 160.086 47.0612C160.56 47.0612 160.966 47.1446 161.302 47.3093C161.638 47.4755 161.898 47.7329 162.08 48.0815C162.263 48.4309 162.354 48.8659 162.354 49.3864V50.3939ZM161.675 50.3939V49.3864C161.675 48.9557 161.607 48.6113 161.472 48.3539C161.337 48.0958 161.151 47.9133 160.916 47.8063C160.681 47.6994 160.405 47.6459 160.086 47.6459C159.781 47.6459 159.504 47.653 159.256 47.6673V52.1201C159.417 52.1322 159.693 52.1379 160.086 52.1379C160.582 52.1379 160.971 52.006 161.253 51.7401C161.535 51.4748 161.674 51.0263 161.674 50.3939H161.675Z" fill="white"/>
<path fill-rule="evenodd" clip-rule="evenodd" d="M79.0722 16.9836C79.0722 17.5412 78.9737 18.0745 78.7752 18.5843C78.5775 19.0934 78.2641 19.5576 77.8351 19.9762C77.4068 20.3947 76.8378 20.727 76.1304 20.9737C75.4223 21.2197 74.5871 21.3437 73.6263 21.3437C72.2364 21.3437 70.9786 21.1976 69.855 20.9052C69.5895 20.8275 69.4553 20.6942 69.4553 20.5059V18.5594C69.4553 18.307 69.5759 18.1808 69.8165 18.1808H69.875C70.3618 18.2257 71.0279 18.2763 71.8723 18.3305C72.7168 18.3861 73.3143 18.4139 73.6648 18.4139C74.3472 18.4139 74.8134 18.307 75.0639 18.0931C75.3138 17.8791 75.4387 17.5219 75.4387 17.0221C75.4387 16.7297 75.3473 16.4802 75.1653 16.2734C74.9833 16.0652 74.6363 15.8092 74.1231 15.5033L71.3755 13.8691C70.7844 13.5183 70.3119 13.1418 69.9578 12.7396C69.6037 12.3375 69.3582 11.9161 69.2226 11.4747C69.0837 11.0173 69.0146 10.5416 69.0177 10.0637C69.0177 8.87005 69.4139 7.92458 70.2062 7.22653C70.9986 6.52919 72.3049 6.18052 74.1231 6.18052C74.8441 6.18052 75.6336 6.22615 76.4902 6.31599C77.3482 6.40726 77.9679 6.50851 78.3519 6.61831C78.5532 6.66395 78.6539 6.78374 78.6539 6.97839V8.99341C78.6539 9.21373 78.5396 9.32354 78.3126 9.32354H78.2734C77.9695 9.30385 77.6659 9.28127 77.3625 9.2558C77.0558 9.23083 76.7489 9.20967 76.4417 9.19234C76.0345 9.16866 75.6271 9.14917 75.2196 9.13387C74.8281 9.11829 74.4364 9.11021 74.0446 9.10963C73.4928 9.10963 73.0951 9.19519 72.851 9.36775C72.6083 9.53959 72.4863 9.80768 72.4863 10.1706C72.4863 10.443 72.5733 10.669 72.7489 10.8466C72.9245 11.0248 73.2843 11.2637 73.8311 11.5624L76.3831 12.935C77.0399 13.2851 77.5702 13.6709 77.9764 14.093C78.3826 14.5137 78.6667 14.9607 78.8287 15.4306C78.9915 15.9012 79.0722 16.4189 79.0722 16.9836Z" fill="white"/>
<path fill-rule="evenodd" clip-rule="evenodd" d="M91.1247 8.78806C91.1258 8.84018 91.115 8.89188 91.0931 8.93921C91.0712 8.98654 91.0388 9.02825 90.9983 9.06115C90.9173 9.13119 90.8135 9.16923 90.7063 9.1681H87.4712V20.769C87.4722 20.8217 87.4625 20.8741 87.4427 20.923C87.423 20.9719 87.3936 21.0163 87.3563 21.0535C87.319 21.0908 87.2745 21.1202 87.2256 21.1399C87.1766 21.1596 87.1242 21.1693 87.0714 21.1683H84.4609C84.4083 21.1691 84.3561 21.1591 84.3075 21.139C84.2589 21.1189 84.2149 21.0891 84.1782 21.0514C84.1405 21.0148 84.1106 20.9709 84.0905 20.9223C84.0703 20.8738 84.0604 20.8216 84.0612 20.769V9.16739H80.8068C80.7031 9.16765 80.6035 9.12748 80.5291 9.05544C80.4907 9.02213 80.46 8.98093 80.439 8.93466C80.4181 8.88838 80.4074 8.83813 80.4077 8.78734V6.73383C80.4077 6.63044 80.4484 6.54131 80.5291 6.46716C80.6037 6.39501 80.7036 6.35485 80.8075 6.35521H90.7063C90.8163 6.35521 90.9141 6.39086 90.999 6.46217C91.0832 6.53347 91.1247 6.62402 91.1247 6.73454V8.78806Z" fill="white"/>
<path fill-rule="evenodd" clip-rule="evenodd" d="M103.899 14.9493C103.899 17.1355 103.358 18.7483 102.276 19.7865C101.195 20.8239 99.7672 21.3437 97.9948 21.3437C96.2337 21.3437 94.8103 20.8239 93.7217 19.7865C92.6338 18.7483 92.0898 17.1355 92.0898 14.9493V12.5749C92.0898 10.3881 92.6302 8.77593 93.7124 7.73776C94.7939 6.6996 96.2209 6.18052 97.9948 6.18052C98.8585 6.18052 99.6473 6.3003 100.362 6.54059C101.076 6.78017 101.697 7.15379 102.223 7.66004C102.749 8.16629 103.16 8.83084 103.456 9.65438C103.751 10.4786 103.898 11.4519 103.898 12.5749L103.899 14.9493ZM100.469 14.9493V12.5749C100.469 11.387 100.269 10.5221 99.87 9.98095C99.4703 9.43905 98.8457 9.1681 97.9948 9.1681C97.4422 9.1681 96.9825 9.28646 96.6156 9.52319C96.2487 9.75991 95.9774 10.1321 95.8018 10.6376C95.6269 11.1439 95.5391 11.7892 95.5391 12.5749V14.9493C95.5391 15.7408 95.6269 16.3861 95.8018 16.8859C95.9774 17.3857 96.2444 17.7558 96.6013 17.9954C96.9583 18.2357 97.4223 18.3554 97.9948 18.3554C98.8457 18.3554 99.4703 18.0845 99.87 17.5426C100.27 17.0007 100.469 16.1365 100.469 14.9493Z" fill="white"/>
<path fill-rule="evenodd" clip-rule="evenodd" d="M117.813 20.9252C117.813 21.0871 117.713 21.1676 117.511 21.1676H114.461C114.363 21.1676 114.29 21.1377 114.242 21.0749C114.172 20.9788 114.112 20.8764 114.061 20.769L111.382 15.7279L111.167 15.7472C111.025 15.7472 110.784 15.7408 110.446 15.7279C110.216 15.7177 109.985 15.711 109.755 15.708V20.769C109.755 20.8224 109.744 20.8753 109.722 20.924C109.701 20.9727 109.669 21.0162 109.628 21.0514C109.556 21.1243 109.458 21.1662 109.355 21.1683H106.754C106.651 21.166 106.553 21.1241 106.481 21.0514C106.441 21.0163 106.409 20.9728 106.387 20.9241C106.365 20.8754 106.354 20.8225 106.354 20.769V7.39694C106.354 7.07251 106.424 6.84577 106.564 6.716C106.703 6.58623 106.936 6.49496 107.261 6.44291C108.358 6.26822 109.706 6.18052 111.304 6.18052C112.207 6.18052 113.017 6.26037 113.735 6.41867C114.453 6.57767 115.079 6.83935 115.615 7.20228C116.151 7.56593 116.569 8.05078 116.868 8.65686C117.166 9.26364 117.316 9.99236 117.316 10.8423V11.1054C117.316 12.1036 117.082 12.9393 116.614 13.611C116.152 14.2781 115.501 14.7916 114.744 15.0855L117.754 20.7113C117.79 20.7771 117.81 20.8503 117.813 20.9252ZM113.925 11.1054V10.8423C113.925 10.2455 113.702 9.80127 113.258 9.50892C112.812 9.21658 112.161 9.07113 111.304 9.07113C110.739 9.07113 110.222 9.09038 109.755 9.1296V12.9536C110.04 12.9792 110.511 12.9921 111.167 12.9921C112.194 12.9921 112.91 12.8495 113.316 12.5642C113.722 12.279 113.925 11.7927 113.925 11.1054Z" fill="white"/>
<path fill-rule="evenodd" clip-rule="evenodd" d="M131.024 20.7683C131.025 20.821 131.016 20.8733 130.996 20.9222C130.976 20.971 130.947 21.0154 130.909 21.0526C130.872 21.0899 130.828 21.1192 130.779 21.139C130.73 21.1588 130.677 21.1685 130.625 21.1676H127.994C127.944 21.1697 127.895 21.1603 127.849 21.1401C127.804 21.12 127.763 21.0896 127.731 21.0514C127.666 20.9721 127.631 20.8718 127.634 20.769V15.9226H123.298V20.769C123.302 20.8742 123.265 20.9768 123.196 21.0557C123.162 21.0927 123.12 21.122 123.074 21.1415C123.028 21.1609 122.978 21.1701 122.928 21.1683H120.287C120.184 21.1659 120.087 21.124 120.015 21.0514C119.974 21.0163 119.942 20.9729 119.92 20.9242C119.898 20.8754 119.887 20.8225 119.888 20.769V10.6077C119.888 9.4854 120.098 8.59697 120.516 7.94098C120.935 7.28571 121.497 6.83507 122.202 6.58837C122.907 6.34166 123.753 6.21831 124.74 6.21831H126.192C126.92 6.21831 127.575 6.28462 128.16 6.41795C128.745 6.55129 129.246 6.77447 129.665 7.08963C130.084 7.40407 130.415 7.85185 130.659 8.43297C130.903 9.01337 131.024 9.73781 131.024 10.6077V20.7683ZM127.634 13.119V10.6084C127.634 10.2448 127.592 9.95813 127.507 9.74708C127.469 9.64587 127.409 9.55381 127.333 9.47673C127.257 9.39964 127.166 9.33922 127.065 9.2993C126.853 9.21159 126.562 9.1681 126.192 9.1681H124.74C124.194 9.1681 123.817 9.27078 123.61 9.4747C123.402 9.67934 123.298 10.0572 123.298 10.6084V13.119H127.634Z" fill="white"/>
<path fill-rule="evenodd" clip-rule="evenodd" d="M143.953 9.05116C143.953 9.14885 143.93 9.21516 143.881 9.25081C143.832 9.28646 143.756 9.30429 143.652 9.30429H143.594C143.496 9.29787 142.935 9.27077 141.912 9.22157C141.09 9.17867 140.266 9.15442 139.443 9.14885C138.579 9.14885 137.927 9.40553 137.49 9.91749C137.051 10.4309 136.831 11.3029 136.831 12.5357V15.027C136.831 16.2663 137.053 17.1404 137.494 17.6496C137.936 18.1594 138.459 18.4139 139.063 18.4139C139.615 18.4139 140.128 18.3947 140.602 18.3554V13.7714C140.602 13.668 140.64 13.5753 140.715 13.494C140.748 13.4557 140.789 13.425 140.835 13.4041C140.881 13.3832 140.932 13.3725 140.982 13.3728H143.535C143.632 13.3728 143.724 13.4149 143.808 13.499C143.846 13.5335 143.877 13.5754 143.899 13.6222C143.921 13.669 143.933 13.7198 143.935 13.7714V20.4667C143.935 20.6165 143.905 20.7234 143.847 20.7883C143.788 20.8532 143.684 20.8988 143.535 20.9245C142.184 21.204 140.693 21.3437 139.063 21.3437C138.192 21.3437 137.321 21.1484 136.452 20.7591C135.581 20.3697 134.85 19.7038 134.259 18.759C133.668 17.8157 133.372 16.565 133.372 15.0078V12.5357C133.372 10.9457 133.662 9.67934 134.239 8.73529C134.818 7.79124 135.559 7.12884 136.461 6.74951C137.364 6.37018 138.358 6.18052 139.443 6.18052C140.313 6.18052 141.07 6.22401 141.713 6.31171C142.356 6.39941 142.989 6.50779 143.613 6.63756C143.84 6.6832 143.954 6.78374 143.954 6.93918V9.05116H143.953Z" fill="white"/>
<path fill-rule="evenodd" clip-rule="evenodd" d="M155.705 20.6721C155.705 20.9116 155.572 21.0514 155.305 21.0899C154.831 21.1555 154.299 21.2133 153.707 21.2653C153.117 21.3174 152.359 21.3437 151.437 21.3437C150.723 21.3437 150.083 21.2831 149.517 21.1633C148.977 21.0535 148.463 20.8368 148.008 20.5259C147.566 20.2207 147.218 19.7829 146.965 19.2118C146.711 18.6414 146.585 17.9241 146.585 17.0613V10.443C146.585 9.30143 146.801 8.41585 147.233 7.78625C147.665 7.15736 148.235 6.73168 148.943 6.51136C149.651 6.29032 150.489 6.18052 151.456 6.18052C152.379 6.18052 153.157 6.20832 153.79 6.26322C154.424 6.31813 154.928 6.37874 155.305 6.44291C155.572 6.48213 155.705 6.6119 155.705 6.83222V8.69109C155.706 8.74364 155.696 8.7958 155.676 8.84436C155.656 8.89292 155.626 8.93685 155.588 8.97344C155.551 9.01114 155.507 9.04096 155.459 9.06107C155.41 9.08118 155.358 9.09115 155.305 9.09038H151.252C150.778 9.09038 150.447 9.18735 150.258 9.38272C150.07 9.57737 149.976 9.93032 149.976 10.443V12.2633H155.15C155.26 12.2633 155.354 12.3019 155.432 12.3803C155.47 12.4169 155.5 12.4607 155.52 12.5091C155.54 12.5576 155.55 12.6095 155.549 12.6619V14.55C155.549 14.6034 155.538 14.6563 155.517 14.7051C155.495 14.7538 155.463 14.7972 155.422 14.8324C155.35 14.9053 155.252 14.9473 155.15 14.9493H149.976V17.0613C149.976 17.5676 150.07 17.9191 150.258 18.1166C150.447 18.3148 150.778 18.4139 151.252 18.4139H155.305C155.358 18.4131 155.41 18.4231 155.459 18.4432C155.507 18.4633 155.551 18.4931 155.588 18.5309C155.626 18.5674 155.655 18.6112 155.676 18.6596C155.696 18.708 155.706 18.7601 155.705 18.8125V20.6721Z" fill="white"/>
<path fill-rule="evenodd" clip-rule="evenodd" d="M174.402 14.7055C174.406 14.7563 174.396 14.8071 174.376 14.8537C174.355 14.9003 174.324 14.9414 174.285 14.9736C174.204 15.036 174.105 15.0688 174.003 15.0663H172.746V20.769C172.744 20.866 172.707 20.9589 172.64 21.0292C172.573 21.0996 172.482 21.1421 172.385 21.1484C171.898 21.1876 171.46 21.2183 171.07 21.2411C170.68 21.2639 170.253 21.2831 169.789 21.2995C169.294 21.3162 168.798 21.3243 168.303 21.3238C167.439 21.3238 166.668 21.256 165.988 21.1191C165.31 20.9837 164.722 20.7448 164.225 20.404C163.728 20.0631 163.349 19.5983 163.085 19.0079C162.822 18.4175 162.69 17.6674 162.69 16.7597C162.69 16.2142 162.796 15.6631 163.007 15.1048C163.202 14.5735 163.502 14.087 163.889 13.6744C163.486 13.1874 163.182 12.709 162.978 12.2384C162.77 11.7479 162.665 11.2197 162.671 10.6868C162.671 9.79057 162.816 9.04689 163.104 8.45293C163.394 7.85898 163.797 7.39836 164.313 7.07109C164.829 6.74309 165.429 6.51278 166.11 6.37945C166.793 6.24683 167.575 6.1798 168.459 6.1798C168.887 6.1798 169.384 6.1962 169.949 6.229C170.514 6.26109 171.008 6.3003 171.43 6.34594C171.853 6.39157 172.207 6.43649 172.492 6.48213C172.661 6.5078 172.746 6.59264 172.746 6.73525V8.9057C172.746 8.977 172.718 9.03833 172.663 9.09038C172.606 9.1429 172.53 9.17083 172.453 9.1681H168.42C167.549 9.1681 166.935 9.26364 166.578 9.45545C166.221 9.64654 166.043 10.0572 166.043 10.6868C166.043 10.9592 166.093 11.2594 166.193 11.5867C166.294 11.9147 166.403 12.1785 166.519 12.3803H174.003C174.126 12.3803 174.224 12.4159 174.295 12.4872C174.367 12.5585 174.402 12.6555 174.402 12.7796V14.7055ZM169.598 18.4332V15.0663H166.519C166.214 15.5269 166.062 16.0909 166.062 16.7597C166.062 17.4085 166.252 17.8492 166.632 18.0831C167.011 18.3169 167.569 18.4332 168.303 18.4332H169.598Z" fill="white"/>
<path fill-rule="evenodd" clip-rule="evenodd" d="M73.1831 27.3966C73.1838 27.4493 73.174 27.5015 73.1542 27.5503C73.1344 27.5991 73.105 27.6435 73.0677 27.6807C73.0304 27.7179 72.986 27.7473 72.9372 27.7671C72.8883 27.7869 72.836 27.7967 72.7833 27.7959H68.7301C68.2561 27.7959 67.9249 27.8929 67.7364 28.0883C67.548 28.2822 67.4538 28.6359 67.4538 29.1485V30.9489H72.627C72.7376 30.9489 72.8319 30.9874 72.9097 31.0659C72.9474 31.1025 72.9773 31.1464 72.9975 31.1949C73.0176 31.2435 73.0275 31.2957 73.0267 31.3482V33.2356C73.0273 33.289 73.0163 33.3418 72.9944 33.3906C72.9726 33.4393 72.9405 33.4828 72.9004 33.518C72.8279 33.5909 72.7299 33.6329 72.627 33.6349H67.4538V39.4553C67.4546 39.508 67.4449 39.5603 67.4251 39.6092C67.4053 39.658 67.3759 39.7024 67.3386 39.7396C67.3013 39.7769 67.2569 39.8062 67.208 39.826C67.1591 39.8458 67.1067 39.8555 67.054 39.8546H64.4628C64.3598 39.8523 64.2618 39.8101 64.1894 39.737C64.1493 39.7019 64.1172 39.6585 64.0954 39.6099C64.0736 39.5613 64.0626 39.5086 64.063 39.4553V29.1485C64.063 28.007 64.2786 27.1207 64.7112 26.4918C65.143 25.8622 65.7127 25.4372 66.4208 25.2169C67.129 24.9959 67.967 24.8861 68.9343 24.8861C69.7132 24.8804 70.492 24.9078 71.2685 24.9681C71.9017 25.0237 72.4064 25.0836 72.7833 25.1485C73.0496 25.1877 73.1831 25.3203 73.1831 25.5477V27.3966Z" fill="white"/>
<path fill-rule="evenodd" clip-rule="evenodd" d="M87.2135 38.3159C87.2135 38.7965 87.1235 39.1288 86.9451 39.3142C86.7666 39.4988 86.4568 39.6272 86.0149 39.6985C85.6188 39.757 84.9085 39.8268 83.8855 39.9074C82.8626 39.9887 82.1238 40.0286 81.6691 40.0286C79.7402 40.0286 78.2654 39.6143 77.2461 38.7837C76.226 37.953 75.7163 36.4699 75.7163 34.3358V25.4208C75.7163 25.3174 75.757 25.2283 75.8377 25.1534C75.9123 25.0813 76.0122 25.0411 76.1161 25.0415H78.7366C78.8408 25.0415 78.9329 25.0786 79.0143 25.1534C79.0956 25.2283 79.1356 25.3174 79.1356 25.4208V34.3358C79.1356 35.036 79.2063 35.5907 79.3455 36C79.4847 36.4086 79.7238 36.7088 80.0615 36.9006C80.3998 37.0917 80.8674 37.1872 81.4649 37.1872C82.1723 37.1872 82.9518 37.1387 83.8027 37.041V25.4208C83.8027 25.3174 83.8406 25.2283 83.9155 25.1534C83.9532 25.1162 83.9981 25.0871 84.0474 25.0678C84.0968 25.0486 84.1495 25.0396 84.2025 25.0415H86.7937C86.9044 25.0415 87.0022 25.0772 87.0864 25.1485C87.1714 25.2198 87.2135 25.3103 87.2135 25.4208V38.3159Z" fill="white"/>
<path fill-rule="evenodd" clip-rule="evenodd" d="M98.5254 39.3577C98.5254 39.5844 98.3927 39.7241 98.1257 39.7762C97.3076 39.9452 96.2233 40.0293 94.872 40.0293C94.1574 40.0293 93.5157 39.9687 92.9475 39.8489C92.4041 39.7395 91.8875 39.5246 91.427 39.2165C90.983 38.9149 90.6339 38.4771 90.3798 37.9024C90.1271 37.3284 90 36.6097 90 35.7469V25.4408C90 25.3431 90.0428 25.2526 90.1271 25.1684C90.1615 25.1299 90.2035 25.0988 90.2504 25.077C90.2972 25.0552 90.3481 25.0431 90.3998 25.0415H93.021C93.1181 25.0415 93.2087 25.0843 93.2937 25.1684C93.3321 25.2029 93.3631 25.2449 93.3848 25.2917C93.4065 25.3385 93.4185 25.3892 93.42 25.4408V35.7469C93.42 36.2531 93.5143 36.6054 93.7027 36.8022C93.8912 37.0011 94.2224 37.0995 94.6964 37.0995H98.1264C98.2235 37.0995 98.3141 37.1423 98.3991 37.2264C98.4376 37.2609 98.4686 37.3028 98.4903 37.3496C98.512 37.3964 98.524 37.4472 98.5254 37.4988V39.3577Z" fill="white"/>
<path fill-rule="evenodd" clip-rule="evenodd" d="M109.419 27.3966C109.42 27.4493 109.41 27.5017 109.39 27.5506C109.37 27.5995 109.341 27.6439 109.304 27.6811C109.266 27.7184 109.222 27.7478 109.173 27.7675C109.124 27.7872 109.072 27.7969 109.019 27.7959H104.966C104.492 27.7959 104.161 27.8929 103.972 28.0883C103.784 28.2822 103.689 28.6359 103.689 29.1485V30.9489H108.863C108.974 30.9489 109.068 30.9874 109.146 31.0659C109.225 31.1436 109.263 31.2377 109.263 31.3482V33.2356C109.264 33.289 109.252 33.342 109.231 33.3907C109.209 33.4394 109.176 33.4829 109.136 33.518C109.064 33.5908 108.966 33.6327 108.863 33.6349H103.689V39.4553C103.69 39.508 103.681 39.5603 103.661 39.6092C103.641 39.658 103.612 39.7024 103.574 39.7396C103.537 39.7769 103.493 39.8062 103.444 39.826C103.395 39.8458 103.342 39.8555 103.29 39.8546H100.698C100.596 39.8521 100.498 39.8099 100.426 39.737C100.386 39.7019 100.354 39.6585 100.332 39.6099C100.31 39.5613 100.299 39.5086 100.299 39.4553V29.1485C100.299 28.007 100.515 27.1207 100.947 26.4918C101.379 25.8622 101.949 25.4372 102.657 25.2169C103.365 24.9959 104.203 24.8861 105.171 24.8861C106.093 24.8861 106.871 24.9132 107.505 24.9681C108.137 25.0237 108.643 25.0836 109.019 25.1485C109.286 25.1877 109.419 25.3203 109.419 25.5478V27.3966Z" fill="white"/>
<path fill-rule="evenodd" clip-rule="evenodd" d="M115.372 39.4546C115.374 39.5076 115.365 39.5605 115.346 39.6099C115.326 39.6593 115.297 39.7043 115.26 39.742C115.225 39.778 115.184 39.8065 115.138 39.8257C115.091 39.845 115.042 39.8546 114.992 39.8539H112.312C112.264 39.8539 112.216 39.8434 112.173 39.8232C112.129 39.803 112.09 39.7736 112.059 39.737C111.988 39.6603 111.949 39.5591 111.952 39.4546V25.4208C111.952 25.3174 111.986 25.2283 112.054 25.1534C112.086 25.1171 112.126 25.0883 112.171 25.0689C112.215 25.0496 112.264 25.0402 112.312 25.0415H114.992C115.102 25.0415 115.193 25.0771 115.265 25.1485C115.336 25.2198 115.372 25.3103 115.372 25.4208V39.4546Z" fill="white"/>
<path fill-rule="evenodd" clip-rule="evenodd" d="M126.684 39.3577C126.684 39.5844 126.551 39.7241 126.284 39.7762C125.466 39.9452 124.381 40.0293 123.029 40.0293C122.315 40.0293 121.674 39.9687 121.106 39.8489C120.563 39.7394 120.046 39.5245 119.586 39.2165C119.141 38.9149 118.792 38.4771 118.538 37.9024C118.285 37.3284 118.159 36.6097 118.159 35.7469V25.4408C118.159 25.3431 118.2 25.2526 118.285 25.1684C118.32 25.13 118.362 25.0989 118.408 25.0771C118.455 25.0553 118.506 25.0432 118.558 25.0415H121.179C121.276 25.0415 121.367 25.0843 121.452 25.1684C121.49 25.2029 121.521 25.2448 121.543 25.2916C121.565 25.3384 121.577 25.3892 121.578 25.4408V35.7469C121.578 36.2531 121.672 36.6054 121.861 36.8022C122.049 37.0011 122.38 37.0995 122.855 37.0995H126.284C126.381 37.0995 126.473 37.1423 126.557 37.2264C126.596 37.2609 126.627 37.3028 126.649 37.3496C126.67 37.3964 126.682 37.4472 126.684 37.4988V39.3577Z" fill="white"/>
<path fill-rule="evenodd" clip-rule="evenodd" d="M142.011 39.5716C142.011 39.7598 141.896 39.8539 141.669 39.8539H139.039C138.994 39.8537 138.95 39.8425 138.91 39.8214C138.87 39.8003 138.836 39.7699 138.81 39.7327C138.749 39.6532 138.716 39.5551 138.718 39.4546V31.1436C138.718 31.0395 138.685 30.9874 138.619 30.9874C138.561 30.9874 138.506 31.0338 138.454 31.1236L136.662 34.4135C136.531 34.641 136.333 34.7543 136.067 34.7543H134.469C134.209 34.7543 134.008 34.6403 133.865 34.4135L132.072 31.1236C132.02 31.0338 131.968 30.9881 131.916 30.9881C131.845 30.9881 131.809 31.0395 131.809 31.1436V39.4546C131.813 39.5584 131.78 39.6603 131.716 39.742C131.691 39.7763 131.658 39.8042 131.62 39.8237C131.582 39.8431 131.54 39.8534 131.497 39.8539H128.857C128.63 39.8539 128.516 39.7598 128.516 39.5716V25.7239C128.516 25.5164 128.584 25.3502 128.72 25.2269C128.857 25.1035 129.029 25.0422 129.237 25.0422H131.117C131.507 25.0422 131.799 25.224 131.994 25.5877L135.044 31.2612C135.128 31.4359 135.203 31.5236 135.268 31.5236C135.327 31.5236 135.398 31.4359 135.483 31.2612L138.532 25.5877C138.727 25.224 139.022 25.0422 139.419 25.0422H141.289C141.504 25.0422 141.677 25.105 141.81 25.2319C141.944 25.3588 142.01 25.5285 142.01 25.7431V39.5723L142.011 39.5716Z" fill="white"/>
<path fill-rule="evenodd" clip-rule="evenodd" d="M153.858 39.3577C153.858 39.5979 153.725 39.7377 153.459 39.7762C152.985 39.8411 152.452 39.8996 151.861 39.9509C151.27 40.0029 150.513 40.0293 149.591 40.0293C148.876 40.0293 148.236 39.9694 147.671 39.8489C147.13 39.739 146.617 39.5223 146.161 39.2115C145.72 38.907 145.372 38.4685 145.119 37.8981C144.865 37.327 144.738 36.6096 144.738 35.7469V29.1293C144.738 27.987 144.955 27.1014 145.386 26.4718C145.818 25.8429 146.389 25.418 147.097 25.1969C147.804 24.9766 148.642 24.8661 149.61 24.8661C150.533 24.8661 151.311 24.8946 151.944 24.9488C152.578 25.0044 153.082 25.0643 153.459 25.1292C153.725 25.1684 153.859 25.2975 153.859 25.5185V27.3774C153.86 27.43 153.85 27.4822 153.83 27.5308C153.809 27.5793 153.779 27.6232 153.741 27.6597C153.705 27.6972 153.661 27.7269 153.612 27.7469C153.564 27.7669 153.512 27.7768 153.459 27.776H149.406C148.931 27.776 148.6 27.8736 148.412 28.0683C148.223 28.263 148.129 28.6166 148.129 29.1293V30.9489H153.303C153.414 30.9489 153.508 30.9874 153.586 31.0659C153.664 31.1436 153.703 31.2377 153.703 31.3482V33.2356C153.703 33.2892 153.692 33.3422 153.67 33.3911C153.648 33.4399 153.616 33.4835 153.576 33.5187C153.503 33.5913 153.406 33.6329 153.303 33.6349H148.129V35.7469C148.129 36.2531 148.223 36.6054 148.412 36.8022C148.6 37.0011 148.931 37.0995 149.406 37.0995H153.459C153.569 37.0995 153.663 37.1387 153.741 37.2164C153.82 37.2949 153.858 37.3883 153.858 37.4988V39.3577Z" fill="white"/>
<path fill-rule="evenodd" clip-rule="evenodd" d="M167.909 39.4553C167.911 39.5083 167.901 39.561 167.882 39.6103C167.863 39.6596 167.833 39.7044 167.796 39.742C167.761 39.7779 167.72 39.8064 167.674 39.8256C167.628 39.8449 167.578 39.8545 167.528 39.8539H164.859C164.809 39.856 164.759 39.8466 164.714 39.8264C164.668 39.8062 164.628 39.7759 164.596 39.7377C164.53 39.6584 164.496 39.5581 164.498 39.4553V30.5696C164.498 29.8295 164.415 29.2605 164.25 28.8612C164.084 28.4619 163.831 28.1845 163.49 28.0291C163.149 27.8736 162.693 27.7959 162.121 27.7959C161.186 27.7959 160.409 27.8344 159.792 27.9121V39.4553C159.794 39.5082 159.785 39.5609 159.766 39.6102C159.747 39.6595 159.717 39.7043 159.68 39.742C159.646 39.778 159.604 39.8065 159.558 39.8257C159.512 39.845 159.462 39.8546 159.412 39.8539H156.752C156.702 39.8545 156.653 39.8448 156.607 39.8256C156.561 39.8063 156.519 39.7779 156.484 39.742C156.447 39.7044 156.418 39.6596 156.399 39.6103C156.379 39.561 156.37 39.5082 156.372 39.4553V26.4426C156.372 26.0019 156.444 25.6996 156.586 25.5378C156.729 25.3759 156.999 25.2654 157.395 25.2069C157.564 25.1813 157.957 25.1356 158.574 25.0707C159.178 25.0069 159.784 24.9565 160.391 24.9196C160.986 24.8839 161.436 24.8661 161.74 24.8661C163.125 24.8661 164.261 25.0251 165.151 25.3438C166.041 25.6611 166.723 26.2387 167.197 27.0751C167.671 27.9121 167.909 29.0772 167.909 30.5696V39.4553Z" fill="white"/>
<path fill-rule="evenodd" clip-rule="evenodd" d="M180 27.4743C180.001 27.5265 179.99 27.5782 179.968 27.6255C179.946 27.6728 179.914 27.7145 179.874 27.7474C179.792 27.8176 179.688 27.8556 179.581 27.8544H176.346V39.4553C176.347 39.508 176.337 39.5604 176.317 39.6093C176.298 39.6582 176.268 39.7026 176.231 39.7398C176.193 39.7771 176.149 39.8065 176.1 39.8262C176.051 39.8459 175.999 39.8556 175.946 39.8546H173.335C173.283 39.8554 173.231 39.8453 173.182 39.8251C173.133 39.8048 173.089 39.7748 173.053 39.737C173.015 39.7004 172.985 39.6565 172.965 39.6079C172.945 39.5594 172.935 39.5072 172.936 39.4546V27.8537H169.681C169.578 27.854 169.478 27.8141 169.404 27.7424C169.365 27.7091 169.334 27.6679 169.314 27.6217C169.293 27.5754 169.282 27.5251 169.282 27.4743V25.4208C169.282 25.3174 169.323 25.2283 169.404 25.1534C169.478 25.0814 169.578 25.0413 169.682 25.0415H179.581C179.692 25.0415 179.789 25.0772 179.874 25.1485C179.958 25.2198 180 25.3103 180 25.4208V27.4743Z" fill="white"/>
</g>
<defs>
<clipPath id="clip0_89_1484">
<rect width="180" height="53" fill="white"/>
</clipPath>
</defs>
</svg>
