<svg width="180" height="53" viewBox="0 0 180 53" fill="none" xmlns="http://www.w3.org/2000/svg">
<g clip-path="url(#clip0_118_108)">
<path fill-rule="evenodd" clip-rule="evenodd" d="M49.7321 31.6028V53H0V40.0001L0.0521092 39.9837C2.2536 43.0754 5.05972 45.5375 8.44191 47.1667C21.1548 53.2916 38.0878 45.7492 49.7378 29.9842L49.7321 31.6028Z" fill="black"/>
<path fill-rule="evenodd" clip-rule="evenodd" d="M16.0247 40.2953H16.0176C14.1245 40.2953 12.2727 40.0222 10.5138 39.4824L10.3425 39.4147L10.289 39.3933L10.2461 39.3769L10.2376 39.3733C10.1105 39.3234 9.98987 39.2771 9.8728 39.2364L9.83354 39.2179L9.76929 39.1937C9.22391 38.9855 8.79275 38.8207 8.08962 38.5277C4.77453 36.9334 2.06834 34.375 0.0424544 30.924L0.00390625 30.8527V3.3277H49.7274V7.26075L59.3536 0L59.9411 23.6739L57.8017 3.48171L49.7274 9.60376L38.8841 17.7701L44.8483 20.6436C41.1427 26.5824 36.4749 31.5557 31.3531 35.0282C26.2741 38.4742 20.9738 40.2953 16.0247 40.2953ZM2.79861 23.8279H2.72223C2.48452 23.8279 2.32533 23.9734 2.27464 24.2365L1.90916 26.3328V26.397C1.90916 26.5717 2.04479 26.7114 2.26037 26.762C3.47676 27.08 4.79951 27.2348 6.30786 27.2348C8.22667 27.2348 9.84567 26.7941 10.9907 25.9606C12.3056 25.0094 12.9716 23.5926 12.9716 21.7487C12.9716 20.446 12.2228 19.3259 10.6823 18.3248L8.20026 16.697C7.33794 16.128 7.1038 15.9091 7.1038 15.4549C7.1038 14.3169 7.86547 14.0844 9.00976 14.0844C9.9242 14.0844 11.3969 14.16 13.2657 14.3026C13.3348 14.3027 13.4039 14.3063 13.4727 14.3133L13.492 14.3169L13.517 14.3204H13.5519C13.7825 14.3204 13.9374 14.1907 13.9895 13.9554L14.3729 11.7906V11.705C14.3729 11.5553 14.2772 11.4476 14.1109 11.4077C13.3257 11.1888 11.2055 10.9357 9.65079 10.9357C7.81478 10.9357 6.34569 11.2758 5.28778 11.9482C4.00429 12.7618 3.35326 14.0488 3.35326 15.7736C3.35326 17.1077 4.03641 18.287 5.27707 19.0934L7.92115 20.8289C8.6921 21.3302 9.03474 21.793 9.03474 22.3292C9.03474 23.4942 8.29306 24.0853 6.82826 24.0853C5.98806 24.0853 3.64879 23.9135 2.79861 23.8279ZM26.546 23.8244H26.4811C26.2412 23.8244 26.0728 23.977 26.0292 24.2322L25.6637 26.3328V26.3934C25.6637 26.5717 25.7965 26.7114 26.0085 26.7585C27.2028 27.0765 28.5284 27.2312 30.0603 27.2312C31.9755 27.2312 33.596 26.7913 34.7445 25.9592C36.0594 25.0066 36.7269 23.5898 36.7269 21.7487C36.7269 20.4475 35.9774 19.3266 34.4347 18.3212L31.9484 16.6927C31.0854 16.1294 30.8512 15.9112 30.8512 15.4513C30.8512 14.314 31.615 14.0809 32.7615 14.0809C34.0635 14.0809 36.1301 14.2334 37.0117 14.2983H37.0181L37.1895 14.3112L37.2644 14.3169H37.3072C37.5421 14.3169 37.6949 14.1871 37.737 13.9518L38.1203 11.7906V11.705C38.1203 11.5503 38.0325 11.4462 37.8655 11.4042C37.0781 11.1853 34.9594 10.9314 33.4054 10.9314C31.5722 10.9314 30.1038 11.2737 29.0395 11.9475C27.7532 12.7625 27.1007 14.0495 27.1007 15.7736C27.1007 17.1034 27.7867 18.2827 29.0324 19.0934L31.6686 20.8261C32.4395 21.3281 32.7822 21.7908 32.7822 22.3249C32.7822 23.4914 32.0405 24.0825 30.5764 24.0825C29.7476 24.0825 27.4027 23.9106 26.546 23.8244ZM22.0645 10.9357C20.7853 10.9357 19.3262 11.0284 18.2055 11.7186C17.0741 12.4131 16.3638 13.6623 16.0347 15.5369L14.0859 26.6123V26.6979C14.0859 26.9011 14.2258 27.038 14.4335 27.038H17.2211C17.4531 27.038 17.6901 26.8383 17.7286 26.6123L18.8294 20.3569H24.3788C24.4999 20.3527 24.616 20.3082 24.7088 20.2304C24.8015 20.1526 24.8655 20.046 24.8906 19.9277L25.2383 17.8955V17.81C25.2383 17.6032 25.0984 17.4656 24.8906 17.4656H19.3419L19.6817 15.5369C19.8702 14.4481 20.2828 14.0809 21.3157 14.0809H25.6637C25.8936 14.0809 26.1106 13.8933 26.1591 13.6545L26.5246 11.6623C26.5246 11.6337 26.5282 11.6102 26.5346 11.5938C26.5358 11.588 26.5375 11.5823 26.5396 11.5767L26.541 11.5703C26.5437 11.5654 26.5454 11.5601 26.546 11.5546C26.546 11.3714 26.4304 11.2751 26.1591 11.2323L26.0949 11.2216C26.0835 11.2197 26.0721 11.2181 26.0606 11.2166L26.0392 11.2131L25.9757 11.2038C25.2668 11.0968 24.1968 10.9357 22.0645 10.9357Z" fill="#E50019"/>
<path fill-rule="evenodd" clip-rule="evenodd" d="M84.405 51.226C84.405 51.6488 84.2651 52.0039 83.9867 52.2892C83.7083 52.5758 83.2307 52.7184 82.5562 52.7184C82.1671 52.7184 81.7524 52.6842 81.3141 52.6157C81.2555 52.6064 81.217 52.5929 81.1984 52.5744C81.1806 52.5565 81.1713 52.5252 81.1713 52.4817V52.1822C81.1713 52.1016 81.2141 52.061 81.2998 52.061H81.3212C81.6653 52.0909 82.0765 52.1052 82.5562 52.1052C82.9773 52.1052 83.2729 52.0303 83.4406 51.8806C83.6084 51.7316 83.6926 51.5127 83.6926 51.226C83.6952 51.0473 83.6285 50.8746 83.5063 50.744C83.3821 50.6078 83.1458 50.4339 82.7975 50.2221L82.07 49.78C81.7103 49.5618 81.4469 49.3451 81.2834 49.1333C81.1179 48.9184 81.0307 48.6535 81.0364 48.3825C81.0364 47.9425 81.1906 47.6124 81.4982 47.3914C81.8066 47.1718 82.2492 47.0612 82.826 47.0612C83.131 47.0625 83.4359 47.0768 83.7397 47.104C83.8618 47.114 83.991 47.1304 84.1273 47.1525C84.213 47.1696 84.2558 47.211 84.2558 47.2766V47.5974C84.2558 47.6787 84.213 47.7186 84.1273 47.7186H84.1131C83.6849 47.6897 83.2559 47.6749 82.8267 47.6744C82.4298 47.6744 82.1471 47.7265 81.9787 47.8299C81.8109 47.9333 81.7267 48.1172 81.7267 48.3825C81.7267 48.5507 81.7866 48.6976 81.9059 48.8245C82.0251 48.9508 82.2378 49.1055 82.5412 49.288L83.2286 49.7001C83.5141 49.8706 83.7426 50.0338 83.916 50.1921C84.0888 50.3476 84.213 50.5094 84.2901 50.6749C84.3672 50.8403 84.405 51.0242 84.405 51.226Z" fill="black"/>
<path fill-rule="evenodd" clip-rule="evenodd" d="M91.7609 52.5765C91.7609 52.6392 91.7352 52.6749 91.6838 52.682C91.4504 52.7062 90.9642 52.7176 90.2261 52.7176C89.6929 52.7176 89.2931 52.6093 89.029 52.3896C88.7649 52.1707 88.6328 51.8171 88.6328 51.3279V48.4523C88.6328 47.9653 88.7649 47.6124 89.0276 47.3913C89.2903 47.1717 89.69 47.0612 90.2261 47.0612C90.7123 47.0603 91.1985 47.0751 91.6838 47.1054C91.7081 47.1075 91.7266 47.1197 91.7409 47.1403C91.7537 47.161 91.7609 47.1845 91.7609 47.2116V47.5831C91.7609 47.6445 91.7323 47.6744 91.6766 47.6744H90.2333C89.9706 47.6744 89.7728 47.7001 89.6408 47.7493C89.5101 47.7992 89.4223 47.8783 89.3781 47.9867C89.3352 48.0951 89.3124 48.2505 89.3124 48.4523V49.4919H91.611C91.6524 49.4919 91.6873 49.5062 91.7166 49.5361C91.7459 49.5646 91.7609 49.6003 91.7609 49.6416V49.9226C91.7612 49.9427 91.757 49.9626 91.7488 49.981C91.7405 49.9993 91.7283 50.0157 91.7131 50.0288C91.6859 50.0559 91.6493 50.0715 91.611 50.0723H89.3124V51.3279C89.3124 51.5297 89.3345 51.6845 89.3781 51.7928C89.4223 51.9019 89.5101 51.9804 89.6415 52.0303C89.7728 52.0802 89.9698 52.1051 90.234 52.1051H91.6766C91.7323 52.1051 91.7609 52.1358 91.7609 52.1964V52.5765Z" fill="black"/>
<path fill-rule="evenodd" clip-rule="evenodd" d="M99.8386 52.5943C99.8386 52.6428 99.8072 52.667 99.7443 52.667H99.2175C99.1718 52.667 99.1411 52.6634 99.1262 52.6542C99.0973 52.6299 99.0727 52.601 99.0533 52.5686L97.7163 50.3425H97.5186C97.343 50.3425 97.0689 50.3354 96.6969 50.3212V52.5173C96.6985 52.5564 96.6855 52.5948 96.6605 52.6249C96.6483 52.6389 96.6331 52.6499 96.6161 52.6572C96.599 52.6645 96.5806 52.6678 96.562 52.667H96.1594C96.1412 52.6674 96.123 52.6639 96.1063 52.6566C96.0895 52.6494 96.0745 52.6386 96.0623 52.6249C96.0367 52.5953 96.0232 52.5571 96.0245 52.518V47.2844C96.0245 47.1867 96.0838 47.1318 96.203 47.1204C96.3945 47.1002 96.5866 47.0859 96.779 47.0776C97.0139 47.0669 97.2609 47.0612 97.5186 47.0612C97.9355 47.0612 98.2995 47.1132 98.6108 47.2159C98.9227 47.32 99.1683 47.4926 99.3482 47.7329C99.5266 47.9739 99.6159 48.2855 99.6159 48.6669V48.7218C99.6159 49.1211 99.5088 49.4484 99.2968 49.7037C99.0826 49.9597 98.7971 50.1343 98.4402 50.2292L99.8179 52.5251C99.8321 52.5465 99.8386 52.57 99.8386 52.5943ZM98.9398 48.7218V48.6676C98.9398 48.4266 98.8877 48.2327 98.7828 48.0851C98.6779 47.9382 98.5222 47.8327 98.3152 47.7692C98.1082 47.7065 97.8427 47.6744 97.5186 47.6744C97.0903 47.6744 96.8162 47.6815 96.6969 47.6965V49.7436C96.7483 49.7436 96.8825 49.7465 97.1024 49.7507C97.3216 49.7564 97.4608 49.7586 97.5186 49.7586C97.8398 49.7586 98.1039 49.7272 98.3102 49.6659C98.5158 49.6031 98.6722 49.4969 98.7799 49.345C98.887 49.1924 98.9398 48.9849 98.9398 48.7218Z" fill="black"/>
<path fill-rule="evenodd" clip-rule="evenodd" d="M107.694 47.2402C107.695 47.2553 107.692 47.2704 107.687 47.2844L106.309 52.1529C106.251 52.3647 106.151 52.5116 106.011 52.595C105.87 52.6777 105.709 52.7203 105.545 52.7184C105.143 52.7184 104.89 52.5294 104.786 52.1529L103.401 47.2844C103.395 47.2703 103.393 47.2553 103.394 47.2402C103.394 47.201 103.406 47.1703 103.432 47.1475C103.457 47.1244 103.49 47.1117 103.524 47.1118H103.96C103.991 47.1118 104.02 47.1239 104.045 47.1453C104.071 47.1667 104.088 47.1938 104.095 47.2259L105.395 51.9889C105.43 52.093 105.48 52.1458 105.545 52.1458C105.611 52.1458 105.659 52.093 105.688 51.9889L106.999 47.2259C107.019 47.1503 107.061 47.1118 107.128 47.1118H107.565C107.651 47.1118 107.694 47.1546 107.694 47.2402Z" fill="black"/>
<path fill-rule="evenodd" clip-rule="evenodd" d="M112.56 52.5173C112.561 52.5555 112.547 52.5926 112.522 52.6214C112.51 52.6359 112.495 52.6476 112.479 52.6555C112.462 52.6634 112.444 52.6674 112.425 52.667H112.013C111.995 52.6668 111.978 52.663 111.962 52.6557C111.946 52.6485 111.932 52.638 111.92 52.6249C111.906 52.611 111.895 52.5943 111.887 52.5759C111.88 52.5575 111.876 52.5378 111.877 52.518V47.2544C111.877 47.218 111.892 47.183 111.917 47.1567C111.929 47.1429 111.943 47.1318 111.96 47.1241C111.976 47.1165 111.994 47.1125 112.013 47.1125H112.425C112.444 47.1129 112.462 47.1169 112.478 47.1243C112.495 47.1317 112.51 47.1423 112.523 47.1556C112.535 47.1688 112.545 47.1845 112.552 47.2015C112.558 47.2186 112.561 47.2369 112.561 47.2551V52.5173H112.56Z" fill="black"/>
<path fill-rule="evenodd" clip-rule="evenodd" d="M120.304 52.4738C120.304 52.5565 120.254 52.6064 120.156 52.6235C119.816 52.6863 119.402 52.7184 118.914 52.7184C118.672 52.7184 118.432 52.6798 118.197 52.6014C117.961 52.5233 117.745 52.3951 117.563 52.2257C117.375 52.0531 117.225 51.815 117.11 51.5126C116.996 51.2089 116.938 50.8424 116.938 50.4117V49.3714C116.938 48.8024 117.033 48.3446 117.225 47.9995C117.416 47.6537 117.659 47.4113 117.954 47.2715C118.254 47.1302 118.582 47.0583 118.914 47.0612C119.271 47.0612 119.689 47.1018 120.172 47.1824C120.249 47.1917 120.289 47.2231 120.289 47.2765V47.6601C120.289 47.7136 120.259 47.74 120.201 47.74H120.179C119.761 47.7024 119.342 47.6805 118.922 47.6744C118.52 47.6744 118.202 47.8077 117.969 48.0744C117.734 48.3404 117.617 48.7732 117.617 49.3721V50.4117C117.617 51.0057 117.735 51.4363 117.971 51.7037C118.205 51.9718 118.522 52.1051 118.922 52.1051C119.266 52.1051 119.677 52.0859 120.157 52.0467H120.186C120.264 52.0467 120.304 52.0873 120.304 52.1672V52.4738Z" fill="black"/>
<path fill-rule="evenodd" clip-rule="evenodd" d="M127.549 52.5765C127.549 52.6392 127.523 52.6749 127.472 52.682C127.238 52.7062 126.752 52.7176 126.014 52.7176C125.48 52.7176 125.081 52.6093 124.817 52.3896C124.553 52.1707 124.421 51.8171 124.421 51.3279V48.4523C124.421 47.9653 124.552 47.6124 124.816 47.3913C125.078 47.1717 125.478 47.0612 126.014 47.0612C126.5 47.0603 126.987 47.0751 127.472 47.1054C127.496 47.1075 127.515 47.1197 127.529 47.1403C127.543 47.1616 127.549 47.1864 127.549 47.2116V47.5831C127.549 47.6445 127.52 47.6744 127.464 47.6744H126.021C125.758 47.6744 125.561 47.7001 125.429 47.7493C125.298 47.7992 125.21 47.8783 125.166 47.9867C125.123 48.0951 125.1 48.2505 125.1 48.4523V49.4919H127.399C127.44 49.4919 127.475 49.5062 127.505 49.5361C127.533 49.5646 127.549 49.6003 127.549 49.6416V49.9226C127.549 49.9427 127.545 49.9626 127.537 49.981C127.529 49.9993 127.516 50.0157 127.501 50.0288C127.474 50.0561 127.437 50.0717 127.398 50.0723H125.1V51.3279C125.1 51.5297 125.123 51.6845 125.166 51.7928C125.21 51.9019 125.298 51.9804 125.43 52.0303C125.561 52.0802 125.758 52.1051 126.021 52.1051H127.464C127.521 52.1051 127.549 52.1358 127.549 52.1964V52.5765Z" fill="black"/>
<path fill-rule="evenodd" clip-rule="evenodd" d="M134.968 51.226C134.968 51.6488 134.829 52.0039 134.55 52.2891C134.271 52.5758 133.795 52.7183 133.12 52.7183C132.73 52.7183 132.316 52.6841 131.878 52.6157C131.819 52.6064 131.781 52.5929 131.762 52.5743C131.744 52.5565 131.735 52.5251 131.735 52.4816V52.1822C131.735 52.1016 131.778 52.0609 131.863 52.0609H131.885C132.228 52.0909 132.64 52.1051 133.12 52.1051C133.542 52.1051 133.836 52.0303 134.005 51.8805C134.172 51.7315 134.256 51.5126 134.256 51.226C134.259 51.0474 134.192 50.8746 134.07 50.744C133.946 50.6078 133.709 50.4338 133.361 50.222L132.634 49.78C132.274 49.5618 132.011 49.345 131.847 49.1332C131.681 48.9183 131.594 48.6535 131.6 48.3824C131.6 47.9425 131.754 47.6124 132.062 47.3913C132.37 47.1717 132.813 47.0612 133.389 47.0612C133.694 47.0624 133.999 47.0767 134.303 47.104C134.426 47.114 134.554 47.1304 134.691 47.1525C134.776 47.1696 134.819 47.2109 134.819 47.2765V47.5974C134.819 47.6787 134.776 47.7186 134.691 47.7186H134.677C134.248 47.6896 133.819 47.6749 133.39 47.6744C132.993 47.6744 132.711 47.7265 132.542 47.8298C132.374 47.9332 132.291 48.1172 132.291 48.3824C132.291 48.5507 132.35 48.6976 132.469 48.8245C132.589 48.9507 132.801 49.1054 133.105 49.288L133.792 49.7001C134.078 49.8705 134.306 50.0338 134.479 50.1921C134.652 50.3475 134.777 50.5094 134.854 50.6748C134.931 50.8402 134.968 51.0242 134.968 51.226Z" fill="black"/>
<path fill-rule="evenodd" clip-rule="evenodd" d="M147.638 52.5465C147.638 52.6107 147.611 52.6456 147.56 52.6528C147.472 52.667 147.277 52.6813 146.974 52.6962C146.671 52.7105 146.38 52.7176 146.103 52.7176C145.793 52.7176 145.522 52.6855 145.291 52.6199C145.061 52.5552 144.861 52.4113 144.727 52.2135C144.582 52.0075 144.509 51.7123 144.509 51.3279V47.2623C144.509 47.2259 144.524 47.1917 144.553 47.1603C144.566 47.1452 144.583 47.1331 144.601 47.1248C144.619 47.1166 144.639 47.1124 144.659 47.1125H145.039C145.081 47.1125 145.116 47.1268 145.145 47.1567C145.174 47.1853 145.189 47.2209 145.189 47.2623V51.3279C145.189 51.5297 145.21 51.6845 145.255 51.7928C145.298 51.9019 145.386 51.9804 145.517 52.0303C145.65 52.0802 145.846 52.1051 146.11 52.1051H147.553C147.609 52.1051 147.637 52.1358 147.637 52.1964V52.5465H147.638Z" fill="black"/>
<path fill-rule="evenodd" clip-rule="evenodd" d="M154.455 47.576C154.455 47.6566 154.408 47.6972 154.312 47.6972H152.851V52.5173C152.852 52.5564 152.839 52.5949 152.814 52.6249C152.803 52.6388 152.788 52.6499 152.771 52.6573C152.755 52.6647 152.737 52.6683 152.719 52.6677H152.306C152.267 52.6677 152.235 52.6535 152.21 52.6249C152.184 52.5955 152.17 52.5573 152.171 52.518V47.6965H150.713C150.613 47.6965 150.563 47.6566 150.563 47.576V47.248C150.563 47.2138 150.578 47.1824 150.606 47.1553C150.62 47.1412 150.637 47.1302 150.655 47.1228C150.674 47.1155 150.694 47.112 150.713 47.1125H154.313C154.351 47.1125 154.384 47.1254 154.413 47.1503C154.426 47.1626 154.437 47.1776 154.444 47.1943C154.451 47.211 154.455 47.2291 154.455 47.2473V47.576Z" fill="black"/>
<path fill-rule="evenodd" clip-rule="evenodd" d="M162.354 50.3939C162.354 51.1746 162.154 51.7572 161.755 52.1422C161.355 52.5265 160.799 52.7183 160.086 52.7183C159.895 52.7183 159.7 52.7141 159.499 52.7055C159.299 52.697 159.145 52.6884 159.04 52.6806C158.935 52.6713 158.831 52.6595 158.726 52.6449C158.621 52.6306 158.569 52.5686 158.569 52.4595V47.3243C158.569 47.2174 158.621 47.1539 158.726 47.1346C158.831 47.1204 158.936 47.109 159.04 47.099C159.145 47.0919 159.298 47.0826 159.499 47.0747C159.7 47.0662 159.895 47.0612 160.086 47.0612C160.56 47.0612 160.966 47.1446 161.302 47.3093C161.638 47.4755 161.898 47.7329 162.08 48.0815C162.263 48.4309 162.354 48.8659 162.354 49.3864V50.3939ZM161.675 50.3939V49.3864C161.675 48.9557 161.607 48.6113 161.472 48.3539C161.337 48.0958 161.151 47.9133 160.916 47.8063C160.681 47.6994 160.405 47.6459 160.086 47.6459C159.781 47.6459 159.504 47.653 159.256 47.6673V52.1201C159.417 52.1322 159.693 52.1379 160.086 52.1379C160.582 52.1379 160.971 52.006 161.253 51.7401C161.535 51.4748 161.674 51.0263 161.674 50.3939H161.675Z" fill="black"/>
<path fill-rule="evenodd" clip-rule="evenodd" d="M79.0731 16.9836C79.0731 17.5412 78.9746 18.0745 78.7762 18.5843C78.5785 19.0934 78.2651 19.5576 77.8361 19.9762C77.4077 20.3947 76.8388 20.727 76.1314 20.9737C75.4233 21.2197 74.5881 21.3437 73.6272 21.3437C72.2374 21.3437 70.9796 21.1976 69.856 20.9052C69.5904 20.8275 69.4562 20.6942 69.4562 20.5059V18.5594C69.4562 18.307 69.5769 18.1808 69.8174 18.1808H69.876C70.3628 18.2257 71.0288 18.2763 71.8733 18.3305C72.7178 18.3861 73.3153 18.4139 73.6658 18.4139C74.3482 18.4139 74.8144 18.307 75.0649 18.0931C75.3148 17.8791 75.4397 17.5219 75.4397 17.0221C75.4397 16.7297 75.3483 16.4802 75.1663 16.2734C74.9842 16.0652 74.6373 15.8092 74.1241 15.5033L71.3765 13.8691C70.7854 13.5183 70.3129 13.1418 69.9588 12.7396C69.6047 12.3375 69.3592 11.9161 69.2235 11.4747C69.0846 11.0173 69.0156 10.5416 69.0187 10.0637C69.0187 8.87005 69.4148 7.92458 70.2072 7.22653C70.9996 6.52919 72.3059 6.18052 74.1241 6.18052C74.8451 6.18052 75.6346 6.22615 76.4912 6.31599C77.3492 6.40726 77.9688 6.50851 78.3529 6.61831C78.5542 6.66395 78.6548 6.78374 78.6548 6.97839V8.99341C78.6548 9.21373 78.5406 9.32354 78.3136 9.32354H78.2744C77.9705 9.30385 77.6669 9.28127 77.3635 9.2558C77.0568 9.23083 76.7498 9.20967 76.4426 9.19234C76.0355 9.16866 75.6281 9.14917 75.2205 9.13387C74.8291 9.11829 74.4373 9.11021 74.0455 9.10963C73.4937 9.10963 73.0961 9.19519 72.852 9.36775C72.6093 9.53959 72.4872 9.80768 72.4872 10.1706C72.4872 10.443 72.5743 10.669 72.7499 10.8466C72.9255 11.0248 73.2853 11.2637 73.8321 11.5624L76.3841 12.935C77.0408 13.2851 77.5712 13.6709 77.9774 14.093C78.3836 14.5137 78.6677 14.9607 78.8297 15.4306C78.9925 15.9012 79.0731 16.4189 79.0731 16.9836Z" fill="#E50019"/>
<path fill-rule="evenodd" clip-rule="evenodd" d="M91.1251 8.78806C91.1263 8.84018 91.1155 8.89188 91.0936 8.93921C91.0717 8.98654 91.0393 9.02825 90.9988 9.06115C90.9178 9.13119 90.8139 9.16923 90.7068 9.1681H87.4717V20.769C87.4727 20.8217 87.463 20.8741 87.4432 20.923C87.4235 20.9719 87.3941 21.0163 87.3568 21.0535C87.3194 21.0908 87.275 21.1202 87.2261 21.1399C87.1771 21.1596 87.1247 21.1693 87.0719 21.1683H84.4614C84.4088 21.1691 84.3566 21.1591 84.308 21.139C84.2594 21.1189 84.2154 21.0891 84.1787 21.0514C84.141 21.0148 84.1111 20.9709 84.0909 20.9223C84.0708 20.8738 84.0608 20.8216 84.0617 20.769V9.16739H80.8072C80.7036 9.16765 80.604 9.12748 80.5296 9.05544C80.4912 9.02213 80.4605 8.98093 80.4395 8.93466C80.4186 8.88838 80.4079 8.83813 80.4082 8.78734V6.73383C80.4082 6.63044 80.4489 6.54131 80.5296 6.46716C80.6042 6.39501 80.7041 6.35485 80.808 6.35521H90.7068C90.8168 6.35521 90.9146 6.39086 90.9995 6.46217C91.0837 6.53347 91.1251 6.62402 91.1251 6.73454V8.78806Z" fill="#E50019"/>
<path fill-rule="evenodd" clip-rule="evenodd" d="M103.9 14.9493C103.9 17.1355 103.359 18.7483 102.277 19.7865C101.196 20.8239 99.7682 21.3437 97.9957 21.3437C96.2347 21.3437 94.8113 20.8239 93.7227 19.7865C92.6348 18.7483 92.0908 17.1355 92.0908 14.9493V12.5749C92.0908 10.3881 92.6312 8.77593 93.7134 7.73776C94.7949 6.6996 96.2218 6.18052 97.9957 6.18052C98.8595 6.18052 99.6483 6.3003 100.363 6.54059C101.077 6.78017 101.698 7.15379 102.224 7.66004C102.75 8.16629 103.161 8.83084 103.457 9.65438C103.752 10.4786 103.899 11.4519 103.899 12.5749L103.9 14.9493ZM100.47 14.9493V12.5749C100.47 11.387 100.27 10.5221 99.871 9.98095C99.4713 9.43905 98.8466 9.1681 97.9957 9.1681C97.4432 9.1681 96.9835 9.28646 96.6166 9.52319C96.2497 9.75991 95.9784 10.1321 95.8028 10.6376C95.6279 11.1439 95.5401 11.7892 95.5401 12.5749V14.9493C95.5401 15.7408 95.6279 16.3861 95.8028 16.8859C95.9784 17.3857 96.2454 17.7558 96.6023 17.9954C96.9592 18.2357 97.4232 18.3554 97.9957 18.3554C98.8466 18.3554 99.4713 18.0845 99.871 17.5426C100.271 17.0007 100.47 16.1365 100.47 14.9493Z" fill="#E50019"/>
<path fill-rule="evenodd" clip-rule="evenodd" d="M117.813 20.9252C117.813 21.0871 117.713 21.1676 117.511 21.1676H114.462C114.364 21.1676 114.29 21.1377 114.242 21.0749C114.173 20.9788 114.112 20.8764 114.062 20.769L111.382 15.7279L111.168 15.7472C111.025 15.7472 110.785 15.7408 110.447 15.7279C110.217 15.7177 109.986 15.711 109.755 15.708V20.769C109.756 20.8224 109.745 20.8753 109.723 20.924C109.701 20.9727 109.669 21.0162 109.629 21.0514C109.556 21.1243 109.458 21.1662 109.356 21.1683H106.754C106.652 21.166 106.554 21.1241 106.482 21.0514C106.441 21.0163 106.409 20.9728 106.387 20.9241C106.365 20.8754 106.354 20.8225 106.355 20.769V7.39694C106.355 7.07251 106.424 6.84577 106.564 6.716C106.704 6.58623 106.936 6.49496 107.261 6.44291C108.359 6.26822 109.707 6.18052 111.304 6.18052C112.207 6.18052 113.018 6.26037 113.736 6.41867C114.453 6.57767 115.08 6.83935 115.616 7.20228C116.151 7.56593 116.57 8.05078 116.868 8.65686C117.166 9.26364 117.316 9.99236 117.316 10.8423V11.1054C117.316 12.1036 117.082 12.9393 116.615 13.611C116.153 14.2781 115.501 14.7916 114.744 15.0855L117.755 20.7113C117.79 20.7771 117.81 20.8503 117.813 20.9252ZM113.926 11.1054V10.8423C113.926 10.2455 113.703 9.80127 113.258 9.50892C112.813 9.21658 112.162 9.07113 111.304 9.07113C110.74 9.07113 110.223 9.09038 109.755 9.1296V12.9536C110.041 12.9792 110.512 12.9921 111.168 12.9921C112.194 12.9921 112.91 12.8495 113.317 12.5642C113.723 12.279 113.926 11.7927 113.926 11.1054Z" fill="#E50019"/>
<path fill-rule="evenodd" clip-rule="evenodd" d="M131.025 20.7683C131.026 20.821 131.016 20.8733 130.997 20.9222C130.977 20.971 130.948 21.0154 130.91 21.0526C130.873 21.0899 130.829 21.1192 130.78 21.139C130.731 21.1588 130.678 21.1685 130.626 21.1676H127.995C127.945 21.1697 127.896 21.1603 127.85 21.1401C127.805 21.12 127.764 21.0896 127.732 21.0514C127.667 20.9721 127.632 20.8718 127.635 20.769V15.9226H123.299V20.769C123.303 20.8742 123.266 20.9768 123.197 21.0557C123.163 21.0927 123.121 21.122 123.075 21.1415C123.029 21.1609 122.979 21.1701 122.929 21.1683H120.288C120.185 21.1659 120.088 21.124 120.016 21.0514C119.975 21.0163 119.943 20.9729 119.921 20.9242C119.899 20.8754 119.888 20.8225 119.889 20.769V10.6077C119.889 9.4854 120.099 8.59697 120.517 7.94098C120.936 7.28571 121.498 6.83507 122.203 6.58837C122.908 6.34166 123.754 6.21831 124.741 6.21831H126.193C126.921 6.21831 127.576 6.28462 128.161 6.41795C128.746 6.55129 129.247 6.77447 129.666 7.08963C130.085 7.40407 130.416 7.85185 130.66 8.43297C130.904 9.01337 131.025 9.73781 131.025 10.6077V20.7683ZM127.635 13.119V10.6084C127.635 10.2448 127.592 9.95813 127.508 9.74708C127.47 9.64587 127.41 9.55381 127.334 9.47673C127.258 9.39964 127.166 9.33922 127.066 9.2993C126.854 9.21159 126.563 9.1681 126.193 9.1681H124.741C124.195 9.1681 123.818 9.27078 123.611 9.4747C123.403 9.67934 123.299 10.0572 123.299 10.6084V13.119H127.635Z" fill="#E50019"/>
<path fill-rule="evenodd" clip-rule="evenodd" d="M143.954 9.05116C143.954 9.14885 143.931 9.21516 143.882 9.25081C143.833 9.28646 143.757 9.30429 143.653 9.30429H143.595C143.497 9.29787 142.936 9.27077 141.913 9.22157C141.091 9.17867 140.267 9.15442 139.444 9.14885C138.58 9.14885 137.928 9.40553 137.491 9.91749C137.051 10.4309 136.832 11.3029 136.832 12.5357V15.027C136.832 16.2663 137.054 17.1404 137.495 17.6496C137.937 18.1594 138.46 18.4139 139.064 18.4139C139.616 18.4139 140.129 18.3947 140.603 18.3554V13.7714C140.603 13.668 140.641 13.5753 140.716 13.494C140.749 13.4557 140.79 13.425 140.836 13.4041C140.882 13.3832 140.933 13.3725 140.983 13.3728H143.536C143.633 13.3728 143.724 13.4149 143.809 13.499C143.847 13.5335 143.878 13.5754 143.9 13.6222C143.922 13.669 143.934 13.7198 143.936 13.7714V20.4667C143.936 20.6165 143.906 20.7234 143.848 20.7883C143.789 20.8532 143.685 20.8988 143.536 20.9245C142.185 21.204 140.694 21.3437 139.064 21.3437C138.193 21.3437 137.322 21.1484 136.453 20.7591C135.582 20.3697 134.851 19.7038 134.26 18.759C133.669 17.8157 133.373 16.565 133.373 15.0078V12.5357C133.373 10.9457 133.663 9.67934 134.24 8.73529C134.819 7.79124 135.56 7.12884 136.462 6.74951C137.365 6.37018 138.359 6.18052 139.444 6.18052C140.314 6.18052 141.071 6.22401 141.714 6.31171C142.357 6.39941 142.99 6.50779 143.614 6.63756C143.841 6.6832 143.955 6.78374 143.955 6.93918V9.05116H143.954Z" fill="#E50019"/>
<path fill-rule="evenodd" clip-rule="evenodd" d="M155.705 20.6721C155.705 20.9116 155.572 21.0514 155.305 21.0899C154.831 21.1555 154.299 21.2133 153.707 21.2653C153.117 21.3174 152.359 21.3437 151.437 21.3437C150.723 21.3437 150.083 21.2831 149.517 21.1633C148.977 21.0535 148.463 20.8368 148.008 20.5259C147.566 20.2207 147.218 19.7829 146.965 19.2118C146.711 18.6414 146.585 17.9241 146.585 17.0613V10.443C146.585 9.30143 146.801 8.41585 147.233 7.78625C147.665 7.15736 148.235 6.73168 148.943 6.51136C149.651 6.29032 150.489 6.18052 151.456 6.18052C152.379 6.18052 153.157 6.20832 153.79 6.26322C154.424 6.31813 154.928 6.37874 155.305 6.44291C155.572 6.48213 155.705 6.6119 155.705 6.83222V8.69109C155.706 8.74364 155.696 8.7958 155.676 8.84436C155.656 8.89292 155.626 8.93685 155.588 8.97344C155.551 9.01114 155.507 9.04096 155.459 9.06107C155.41 9.08118 155.358 9.09115 155.305 9.09038H151.252C150.778 9.09038 150.447 9.18735 150.258 9.38272C150.07 9.57737 149.976 9.93032 149.976 10.443V12.2633H155.15C155.26 12.2633 155.354 12.3019 155.432 12.3803C155.47 12.4169 155.5 12.4607 155.52 12.5091C155.54 12.5576 155.55 12.6095 155.549 12.6619V14.55C155.549 14.6034 155.538 14.6563 155.517 14.7051C155.495 14.7538 155.463 14.7972 155.422 14.8324C155.35 14.9053 155.252 14.9473 155.15 14.9493H149.976V17.0613C149.976 17.5676 150.07 17.9191 150.258 18.1166C150.447 18.3148 150.778 18.4139 151.252 18.4139H155.305C155.358 18.4131 155.41 18.4231 155.459 18.4432C155.507 18.4633 155.551 18.4931 155.588 18.5309C155.626 18.5674 155.655 18.6112 155.676 18.6596C155.696 18.708 155.706 18.7601 155.705 18.8125V20.6721Z" fill="#E50019"/>
<path fill-rule="evenodd" clip-rule="evenodd" d="M174.403 14.7055C174.406 14.7563 174.397 14.8071 174.377 14.8537C174.356 14.9003 174.325 14.9414 174.286 14.9736C174.205 15.036 174.106 15.0688 174.004 15.0663H172.747V20.769C172.745 20.866 172.708 20.9589 172.641 21.0292C172.574 21.0996 172.483 21.1421 172.386 21.1484C171.899 21.1876 171.461 21.2183 171.07 21.2411C170.681 21.2639 170.254 21.2831 169.79 21.2995C169.295 21.3162 168.799 21.3243 168.304 21.3238C167.44 21.3238 166.669 21.256 165.989 21.1191C165.311 20.9837 164.723 20.7448 164.226 20.404C163.729 20.0631 163.35 19.5983 163.086 19.0079C162.823 18.4175 162.691 17.6674 162.691 16.7597C162.691 16.2142 162.797 15.6631 163.008 15.1048C163.203 14.5735 163.503 14.087 163.89 13.6744C163.487 13.1874 163.183 12.709 162.979 12.2384C162.771 11.7479 162.666 11.2197 162.672 10.6868C162.672 9.79057 162.817 9.04689 163.105 8.45293C163.395 7.85898 163.798 7.39836 164.314 7.07109C164.83 6.74309 165.43 6.51278 166.111 6.37945C166.794 6.24683 167.576 6.1798 168.46 6.1798C168.888 6.1798 169.385 6.1962 169.95 6.229C170.515 6.26109 171.009 6.3003 171.431 6.34594C171.854 6.39157 172.208 6.43649 172.493 6.48213C172.662 6.5078 172.747 6.59264 172.747 6.73525V8.9057C172.747 8.977 172.719 9.03833 172.664 9.09038C172.607 9.1429 172.531 9.17083 172.454 9.1681H168.421C167.55 9.1681 166.936 9.26364 166.579 9.45545C166.222 9.64654 166.044 10.0572 166.044 10.6868C166.044 10.9592 166.094 11.2594 166.194 11.5867C166.295 11.9147 166.404 12.1785 166.52 12.3803H174.004C174.127 12.3803 174.225 12.4159 174.296 12.4872C174.368 12.5585 174.403 12.6555 174.403 12.7796V14.7055ZM169.599 18.4332V15.0663H166.52C166.215 15.5269 166.063 16.0909 166.063 16.7597C166.063 17.4085 166.253 17.8492 166.633 18.0831C167.012 18.3169 167.57 18.4332 168.304 18.4332H169.599Z" fill="#E50019"/>
<path fill-rule="evenodd" clip-rule="evenodd" d="M73.1836 27.3966C73.1843 27.4493 73.1745 27.5015 73.1547 27.5503C73.1349 27.5991 73.1055 27.6435 73.0682 27.6807C73.0309 27.7179 72.9865 27.7473 72.9377 27.7671C72.8888 27.7869 72.8365 27.7967 72.7838 27.7959H68.7306C68.2566 27.7959 67.9254 27.8929 67.7369 28.0883C67.5485 28.2822 67.4542 28.6359 67.4542 29.1485V30.9489H72.6275C72.7381 30.9489 72.8323 30.9874 72.9101 31.0659C72.9479 31.1025 72.9778 31.1464 72.9979 31.1949C73.0181 31.2435 73.028 31.2957 73.0272 31.3482V33.2356C73.0277 33.289 73.0167 33.3418 72.9949 33.3906C72.9731 33.4393 72.941 33.4828 72.9009 33.518C72.8284 33.5909 72.7303 33.6329 72.6275 33.6349H67.4542V39.4553C67.4551 39.508 67.4454 39.5603 67.4256 39.6092C67.4058 39.658 67.3764 39.7024 67.3391 39.7396C67.3018 39.7769 67.2574 39.8062 67.2085 39.826C67.1596 39.8458 67.1072 39.8555 67.0545 39.8546H64.4632C64.3603 39.8523 64.2623 39.8101 64.1898 39.737C64.1498 39.7019 64.1177 39.6585 64.0959 39.6099C64.0741 39.5613 64.0631 39.5086 64.0635 39.4553V29.1485C64.0635 28.007 64.2791 27.1207 64.7117 26.4918C65.1435 25.8622 65.7132 25.4372 66.4213 25.2169C67.1294 24.9959 67.9675 24.8861 68.9348 24.8861C69.7137 24.8804 70.4924 24.9078 71.269 24.9681C71.9022 25.0237 72.4069 25.0836 72.7838 25.1485C73.0501 25.1877 73.1836 25.3203 73.1836 25.5477V27.3966Z" fill="#E50019"/>
<path fill-rule="evenodd" clip-rule="evenodd" d="M87.214 38.3159C87.214 38.7965 87.124 39.1288 86.9456 39.3142C86.7671 39.4988 86.4573 39.6272 86.0154 39.6985C85.6192 39.757 84.909 39.8268 83.886 39.9074C82.8631 39.9887 82.1243 40.0286 81.6695 40.0286C79.7407 40.0286 78.2659 39.6143 77.2466 38.7837C76.2265 37.953 75.7168 36.4699 75.7168 34.3358V25.4208C75.7168 25.3174 75.7575 25.2283 75.8381 25.1534C75.9128 25.0813 76.0127 25.0411 76.1165 25.0415H78.7371C78.8413 25.0415 78.9334 25.0786 79.0148 25.1534C79.0961 25.2283 79.1361 25.3174 79.1361 25.4208V34.3358C79.1361 35.036 79.2068 35.5907 79.346 36C79.4852 36.4086 79.7243 36.7088 80.062 36.9006C80.4003 37.0917 80.8679 37.1872 81.4654 37.1872C82.1728 37.1872 82.9523 37.1387 83.8032 37.041V25.4208C83.8032 25.3174 83.841 25.2283 83.916 25.1534C83.9537 25.1162 83.9985 25.0871 84.0479 25.0678C84.0972 25.0486 84.15 25.0396 84.203 25.0415H86.7942C86.9049 25.0415 87.0027 25.0772 87.0869 25.1485C87.1718 25.2198 87.214 25.3103 87.214 25.4208V38.3159Z" fill="#E50019"/>
<path fill-rule="evenodd" clip-rule="evenodd" d="M98.5254 39.3577C98.5254 39.5844 98.3927 39.7241 98.1257 39.7762C97.3076 39.9452 96.2233 40.0293 94.872 40.0293C94.1574 40.0293 93.5157 39.9687 92.9475 39.8489C92.4041 39.7395 91.8875 39.5246 91.427 39.2165C90.983 38.9149 90.6339 38.4771 90.3798 37.9024C90.1271 37.3284 90 36.6097 90 35.7469V25.4408C90 25.3431 90.0428 25.2526 90.1271 25.1684C90.1615 25.1299 90.2035 25.0988 90.2504 25.077C90.2972 25.0552 90.3481 25.0431 90.3998 25.0415H93.021C93.1181 25.0415 93.2087 25.0843 93.2937 25.1684C93.3321 25.2029 93.3631 25.2449 93.3848 25.2917C93.4065 25.3385 93.4185 25.3892 93.42 25.4408V35.7469C93.42 36.2531 93.5143 36.6054 93.7027 36.8022C93.8912 37.0011 94.2224 37.0995 94.6964 37.0995H98.1264C98.2235 37.0995 98.3141 37.1423 98.3991 37.2264C98.4376 37.2609 98.4686 37.3028 98.4903 37.3496C98.512 37.3964 98.524 37.4472 98.5254 37.4988V39.3577Z" fill="#E50019"/>
<path fill-rule="evenodd" clip-rule="evenodd" d="M109.419 27.3966C109.42 27.4493 109.41 27.5017 109.391 27.5506C109.371 27.5995 109.342 27.6439 109.304 27.6811C109.267 27.7184 109.222 27.7478 109.174 27.7675C109.125 27.7872 109.072 27.7969 109.019 27.7959H104.966C104.492 27.7959 104.161 27.8929 103.973 28.0883C103.785 28.2822 103.69 28.6359 103.69 29.1485V30.9489H108.864C108.974 30.9489 109.069 30.9874 109.146 31.0659C109.225 31.1436 109.264 31.2377 109.264 31.3482V33.2356C109.264 33.289 109.253 33.342 109.231 33.3907C109.209 33.4394 109.177 33.4829 109.136 33.518C109.064 33.5908 108.966 33.6327 108.864 33.6349H103.69V39.4553C103.691 39.508 103.681 39.5603 103.661 39.6092C103.641 39.658 103.612 39.7024 103.575 39.7396C103.537 39.7769 103.493 39.8062 103.444 39.826C103.395 39.8458 103.343 39.8555 103.29 39.8546H100.699C100.596 39.8521 100.498 39.8099 100.426 39.737C100.386 39.7019 100.354 39.6585 100.332 39.6099C100.31 39.5613 100.299 39.5086 100.3 39.4553V29.1485C100.3 28.007 100.515 27.1207 100.947 26.4918C101.379 25.8622 101.95 25.4372 102.658 25.2169C103.366 24.9959 104.203 24.8861 105.171 24.8861C106.093 24.8861 106.871 24.9132 107.505 24.9681C108.138 25.0237 108.643 25.0836 109.019 25.1485C109.286 25.1877 109.419 25.3203 109.419 25.5478V27.3966Z" fill="#E50019"/>
<path fill-rule="evenodd" clip-rule="evenodd" d="M115.372 39.4546C115.374 39.5076 115.365 39.5605 115.346 39.6099C115.327 39.6593 115.298 39.7043 115.26 39.742C115.226 39.778 115.184 39.8065 115.138 39.8257C115.092 39.845 115.042 39.8546 114.993 39.8539H112.313C112.265 39.8539 112.217 39.8434 112.173 39.8232C112.129 39.803 112.091 39.7736 112.059 39.737C111.988 39.6603 111.95 39.5591 111.952 39.4546V25.4208C111.952 25.3174 111.987 25.2283 112.054 25.1534C112.087 25.1171 112.127 25.0883 112.171 25.0689C112.216 25.0496 112.264 25.0402 112.313 25.0415H114.993C115.102 25.0415 115.194 25.0771 115.265 25.1485C115.337 25.2198 115.372 25.3103 115.372 25.4208V39.4546Z" fill="#E50019"/>
<path fill-rule="evenodd" clip-rule="evenodd" d="M126.685 39.3577C126.685 39.5844 126.551 39.7241 126.285 39.7762C125.466 39.9452 124.381 40.0293 123.03 40.0293C122.316 40.0293 121.675 39.9687 121.107 39.8489C120.563 39.7394 120.047 39.5245 119.586 39.2165C119.141 38.9149 118.792 38.4771 118.539 37.9024C118.286 37.3284 118.159 36.6097 118.159 35.7469V25.4408C118.159 25.3431 118.201 25.2526 118.286 25.1684C118.32 25.13 118.362 25.0989 118.409 25.0771C118.456 25.0553 118.507 25.0432 118.558 25.0415H121.179C121.277 25.0415 121.367 25.0843 121.452 25.1684C121.491 25.2029 121.522 25.2448 121.543 25.2916C121.565 25.3384 121.577 25.3892 121.578 25.4408V35.7469C121.578 36.2531 121.673 36.6054 121.861 36.8022C122.05 37.0011 122.381 37.0995 122.856 37.0995H126.285C126.382 37.0995 126.473 37.1423 126.558 37.2264C126.596 37.2609 126.627 37.3028 126.649 37.3496C126.671 37.3964 126.683 37.4472 126.685 37.4988V39.3577Z" fill="#E50019"/>
<path fill-rule="evenodd" clip-rule="evenodd" d="M142.011 39.5716C142.011 39.7598 141.897 39.8539 141.67 39.8539H139.039C138.994 39.8537 138.95 39.8425 138.91 39.8214C138.87 39.8003 138.836 39.7699 138.811 39.7327C138.749 39.6532 138.717 39.5551 138.718 39.4546V31.1436C138.718 31.0395 138.685 30.9874 138.62 30.9874C138.562 30.9874 138.507 31.0338 138.455 31.1236L136.662 34.4135C136.532 34.641 136.334 34.7543 136.068 34.7543H134.469C134.209 34.7543 134.008 34.6403 133.865 34.4135L132.072 31.1236C132.02 31.0338 131.969 30.9881 131.917 30.9881C131.845 30.9881 131.81 31.0395 131.81 31.1436V39.4546C131.814 39.5584 131.781 39.6603 131.717 39.742C131.691 39.7763 131.658 39.8042 131.62 39.8237C131.582 39.8431 131.54 39.8534 131.498 39.8539H128.857C128.63 39.8539 128.517 39.7598 128.517 39.5716V25.7239C128.517 25.5164 128.584 25.3502 128.721 25.2269C128.857 25.1035 129.029 25.0422 129.238 25.0422H131.118C131.508 25.0422 131.8 25.224 131.994 25.5877L135.045 31.2612C135.129 31.4359 135.204 31.5236 135.269 31.5236C135.327 31.5236 135.398 31.4359 135.483 31.2612L138.533 25.5877C138.727 25.224 139.023 25.0422 139.419 25.0422H141.289C141.504 25.0422 141.678 25.105 141.811 25.2319C141.945 25.3588 142.01 25.5285 142.01 25.7431V39.5723L142.011 39.5716Z" fill="#E50019"/>
<path fill-rule="evenodd" clip-rule="evenodd" d="M153.858 39.3577C153.858 39.5979 153.725 39.7377 153.459 39.7762C152.985 39.8411 152.452 39.8996 151.861 39.9509C151.27 40.0029 150.513 40.0293 149.591 40.0293C148.876 40.0293 148.236 39.9694 147.671 39.8489C147.13 39.739 146.617 39.5223 146.161 39.2115C145.72 38.907 145.372 38.4685 145.119 37.8981C144.865 37.327 144.738 36.6096 144.738 35.7469V29.1293C144.738 27.987 144.955 27.1014 145.386 26.4718C145.818 25.8429 146.389 25.418 147.097 25.1969C147.804 24.9766 148.642 24.8661 149.61 24.8661C150.533 24.8661 151.311 24.8946 151.944 24.9488C152.578 25.0044 153.082 25.0643 153.459 25.1292C153.725 25.1684 153.859 25.2975 153.859 25.5185V27.3774C153.86 27.43 153.85 27.4822 153.83 27.5308C153.809 27.5793 153.779 27.6232 153.741 27.6597C153.705 27.6972 153.661 27.7269 153.612 27.7469C153.564 27.7669 153.512 27.7768 153.459 27.776H149.406C148.931 27.776 148.6 27.8736 148.412 28.0683C148.223 28.263 148.129 28.6166 148.129 29.1293V30.9489H153.303C153.414 30.9489 153.508 30.9874 153.586 31.0659C153.664 31.1436 153.703 31.2377 153.703 31.3482V33.2356C153.703 33.2892 153.692 33.3422 153.67 33.3911C153.648 33.4399 153.616 33.4835 153.576 33.5187C153.503 33.5913 153.406 33.6329 153.303 33.6349H148.129V35.7469C148.129 36.2531 148.223 36.6054 148.412 36.8022C148.6 37.0011 148.931 37.0995 149.406 37.0995H153.459C153.569 37.0995 153.663 37.1387 153.741 37.2164C153.82 37.2949 153.858 37.3883 153.858 37.4988V39.3577Z" fill="#E50019"/>
<path fill-rule="evenodd" clip-rule="evenodd" d="M167.909 39.4553C167.911 39.5083 167.901 39.561 167.882 39.6103C167.863 39.6596 167.833 39.7044 167.796 39.742C167.761 39.7779 167.72 39.8064 167.674 39.8256C167.628 39.8449 167.578 39.8545 167.528 39.8539H164.859C164.809 39.856 164.759 39.8466 164.714 39.8264C164.668 39.8062 164.628 39.7759 164.596 39.7377C164.53 39.6584 164.496 39.5581 164.498 39.4553V30.5696C164.498 29.8295 164.415 29.2605 164.25 28.8612C164.084 28.4619 163.831 28.1845 163.49 28.0291C163.149 27.8736 162.693 27.7959 162.121 27.7959C161.186 27.7959 160.409 27.8344 159.792 27.9121V39.4553C159.794 39.5082 159.785 39.5609 159.766 39.6102C159.747 39.6595 159.717 39.7043 159.68 39.742C159.646 39.778 159.604 39.8065 159.558 39.8257C159.512 39.845 159.462 39.8546 159.412 39.8539H156.752C156.702 39.8545 156.653 39.8448 156.607 39.8256C156.561 39.8063 156.519 39.7779 156.484 39.742C156.447 39.7044 156.418 39.6596 156.399 39.6103C156.379 39.561 156.37 39.5082 156.372 39.4553V26.4426C156.372 26.0019 156.444 25.6996 156.586 25.5378C156.729 25.3759 156.999 25.2654 157.395 25.2069C157.564 25.1813 157.957 25.1356 158.574 25.0707C159.178 25.0069 159.784 24.9565 160.391 24.9196C160.986 24.8839 161.436 24.8661 161.74 24.8661C163.125 24.8661 164.261 25.0251 165.151 25.3438C166.041 25.6611 166.723 26.2387 167.197 27.0751C167.671 27.9121 167.909 29.0772 167.909 30.5696V39.4553Z" fill="#E50019"/>
<path fill-rule="evenodd" clip-rule="evenodd" d="M180 27.4743C180.001 27.5265 179.99 27.5782 179.968 27.6255C179.946 27.6728 179.914 27.7145 179.874 27.7474C179.792 27.8176 179.688 27.8556 179.581 27.8544H176.346V39.4553C176.347 39.508 176.337 39.5604 176.317 39.6093C176.298 39.6582 176.268 39.7026 176.231 39.7398C176.193 39.7771 176.149 39.8065 176.1 39.8262C176.051 39.8459 175.999 39.8556 175.946 39.8546H173.335C173.283 39.8554 173.231 39.8453 173.182 39.8251C173.133 39.8048 173.089 39.7748 173.053 39.737C173.015 39.7004 172.985 39.6565 172.965 39.6079C172.945 39.5594 172.935 39.5072 172.936 39.4546V27.8537H169.681C169.578 27.854 169.478 27.8141 169.404 27.7424C169.365 27.7091 169.334 27.6679 169.314 27.6217C169.293 27.5754 169.282 27.5251 169.282 27.4743V25.4208C169.282 25.3174 169.323 25.2283 169.404 25.1534C169.478 25.0814 169.578 25.0413 169.682 25.0415H179.581C179.692 25.0415 179.789 25.0772 179.874 25.1485C179.958 25.2198 180 25.3103 180 25.4208V27.4743Z" fill="#E50019"/>
</g>
<defs>
<clipPath id="clip0_118_108">
<rect width="180" height="53" fill="white"/>
</clipPath>
</defs>
</svg>
