<svg xmlns="http://www.w3.org/2000/svg" width="200" height="58.956" viewBox="375 5861 200 58.956"><g data-name="Group 2539"><g data-name="Path 1"><path d="M430.258 5896.155v23.801H375v-14.46l.058-.019c2.446 3.44 5.564 6.178 9.321 7.99 14.126 6.814 32.94-1.576 45.885-19.113l-.006 1.8Z" fill="#fff" fill-rule="evenodd"/><path d="M430.258 5896.155v23.801H375v-14.46l.058-.019c2.446 3.44 5.564 6.178 9.321 7.99 14.126 6.814 32.94-1.576 45.885-19.113l-.006 1.8Z" stroke-linejoin="round" stroke-linecap="round" stroke="rgba(0,0,0,0 )" fill="transparent"/></g><g data-name="Subtraction 8"><path d="M392.805 5905.824h-.009c-2.102 0-4.16-.304-6.114-.904l-.19-.075-.06-.024-.047-.019-.01-.004c-.142-.055-.275-.107-.406-.152l-.043-.02-.07-.028c-.608-.231-1.087-.415-1.868-.74-3.683-1.774-6.69-4.62-8.941-8.459l-.043-.08v-30.617h55.248v4.374l10.696-8.076.653 26.335-2.377-22.462-8.972 6.81-12.048 9.084 6.627 3.196c-4.118 6.606-9.304 12.139-14.995 16.002-5.643 3.833-11.533 5.859-17.031 5.859Zm-14.696-18.318h-.084c-.265 0-.442.161-.498.454l-.406 2.332v.072c0 .194.15.35.39.406 1.351.354 2.822.525 4.498.525 2.131 0 3.93-.49 5.202-1.417 1.461-1.058 2.202-2.634 2.202-4.685 0-1.45-.832-2.695-2.544-3.809l-2.758-1.811c-.958-.633-1.218-.876-1.218-1.381 0-1.266.846-1.525 2.117-1.525 1.017 0 2.653.084 4.73.243a2.303 2.303 0 0 1 .23.012l.02.004.028.004h.04c.255 0 .428-.144.486-.406l.425-2.409v-.095c0-.166-.106-.286-.29-.33-.874-.243-3.228-.526-4.957-.526-2.04 0-3.671.38-4.847 1.127-1.426.905-2.15 2.337-2.15 4.255 0 1.485.76 2.797 2.138 3.694l2.938 1.93c.856.557 1.238 1.072 1.238 1.668 0 1.297-.825 1.954-2.452 1.954-.934 0-3.533-.19-4.478-.286Zm26.386-.004h-.072c-.266 0-.453.17-.502.454l-.406 2.336v.068c0 .198.147.353.383.406 1.327.353 2.8.525 4.502.525 2.128 0 3.929-.49 5.205-1.415 1.46-1.06 2.202-2.635 2.202-4.683 0-1.448-.833-2.695-2.547-3.813l-2.763-1.811c-.958-.627-1.218-.87-1.218-1.381 0-1.266.848-1.525 2.122-1.525 1.447 0 3.743.17 4.723.242h.007l.19.015.083.006h.048c.26 0 .43-.144.478-.406l.425-2.405v-.095c0-.172-.097-.288-.282-.334-.875-.243-3.23-.526-4.956-.526-2.037 0-3.669.38-4.851 1.13-1.43.907-2.154 2.338-2.154 4.256 0 1.48.762 2.791 2.146 3.694l2.929 1.926c.856.56 1.238 1.074 1.238 1.668 0 1.297-.825 1.955-2.452 1.955-.92 0-3.526-.192-4.478-.287Zm-4.98-14.338c-1.42 0-3.042.104-4.287.872-1.257.772-2.046 2.162-2.412 4.247l-2.165 12.32v.095c0 .227.155.378.386.378h3.097a.609.609 0 0 0 .564-.473l1.223-6.958h6.166a.603.603 0 0 0 .569-.478l.386-2.261v-.095c0-.229-.155-.383-.386-.383h-6.165l.377-2.145c.21-1.211.668-1.62 1.816-1.62h4.831c.255 0 .497-.208.55-.474l.406-2.216a.22.22 0 0 1 .012-.077.115.115 0 0 1 .005-.019l.002-.006a.048.048 0 0 0 .005-.018c0-.204-.129-.31-.43-.359l-.072-.011a.918.918 0 0 0-.037-.006l-.023-.004-.071-.01c-.788-.12-1.978-.299-4.347-.299Z" fill="#fff" fill-rule="evenodd"/><path d="M392.805 5905.824h-.009c-2.102 0-4.16-.304-6.114-.904l-.19-.075-.06-.024-.047-.019-.01-.004c-.142-.055-.275-.107-.406-.152l-.043-.02-.07-.028c-.608-.231-1.087-.415-1.868-.74-3.683-1.774-6.69-4.62-8.941-8.459l-.043-.08v-30.617h55.248v4.374l10.696-8.076.653 26.335-2.377-22.462-8.972 6.81-12.048 9.084 6.627 3.196c-4.118 6.606-9.304 12.139-14.995 16.002-5.643 3.833-11.533 5.859-17.031 5.859Zm-14.696-18.318h-.084c-.265 0-.442.161-.498.454l-.406 2.332v.072c0 .194.15.35.39.406 1.351.354 2.822.525 4.498.525 2.131 0 3.93-.49 5.202-1.417 1.461-1.058 2.202-2.634 2.202-4.685 0-1.45-.832-2.695-2.544-3.809l-2.758-1.811c-.958-.633-1.218-.876-1.218-1.381 0-1.266.846-1.525 2.117-1.525 1.017 0 2.653.084 4.73.243a2.303 2.303 0 0 1 .23.012l.02.004.028.004h.04c.255 0 .428-.144.486-.406l.425-2.409v-.095c0-.166-.106-.286-.29-.33-.874-.243-3.228-.526-4.957-.526-2.04 0-3.671.38-4.847 1.127-1.426.905-2.15 2.337-2.15 4.255 0 1.485.76 2.797 2.138 3.694l2.938 1.93c.856.557 1.238 1.072 1.238 1.668 0 1.297-.825 1.954-2.452 1.954-.934 0-3.533-.19-4.478-.286Zm26.386-.004h-.072c-.266 0-.453.17-.502.454l-.406 2.336v.068c0 .198.147.353.383.406 1.327.353 2.8.525 4.502.525 2.128 0 3.929-.49 5.205-1.415 1.46-1.06 2.202-2.635 2.202-4.683 0-1.448-.833-2.695-2.547-3.813l-2.763-1.811c-.958-.627-1.218-.87-1.218-1.381 0-1.266.848-1.525 2.122-1.525 1.447 0 3.743.17 4.723.242h.007l.19.015.083.006h.048c.26 0 .43-.144.478-.406l.425-2.405v-.095c0-.172-.097-.288-.282-.334-.875-.243-3.23-.526-4.956-.526-2.037 0-3.669.38-4.851 1.13-1.43.907-2.154 2.338-2.154 4.256 0 1.48.762 2.791 2.146 3.694l2.929 1.926c.856.56 1.238 1.074 1.238 1.668 0 1.297-.825 1.955-2.452 1.955-.92 0-3.526-.192-4.478-.287Zm-4.98-14.338c-1.42 0-3.042.104-4.287.872-1.257.772-2.046 2.162-2.412 4.247l-2.165 12.32v.095c0 .227.155.378.386.378h3.097a.609.609 0 0 0 .564-.473l1.223-6.958h6.166a.603.603 0 0 0 .569-.478l.386-2.261v-.095c0-.229-.155-.383-.386-.383h-6.165l.377-2.145c.21-1.211.668-1.62 1.816-1.62h4.831c.255 0 .497-.208.55-.474l.406-2.216a.22.22 0 0 1 .012-.077.115.115 0 0 1 .005-.019l.002-.006a.048.048 0 0 0 .005-.018c0-.204-.129-.31-.43-.359l-.072-.011a.918.918 0 0 0-.037-.006l-.023-.004-.071-.01c-.788-.12-1.978-.299-4.347-.299Z" stroke-linejoin="round" stroke-linecap="round" stroke="rgba(0,0,0,0 )" fill="transparent"/></g><g data-name="Group 35"><g data-name="Group 34"><path d="M468.783 5917.983c0 .47-.155.865-.465 1.183-.31.318-.84.477-1.589.477a9.01 9.01 0 0 1-1.38-.114c-.065-.01-.108-.026-.129-.046-.02-.02-.03-.055-.03-.104v-.333c0-.09.048-.134.143-.134h.024c.382.033.839.049 1.372.049.468 0 .796-.083.982-.25.187-.166.28-.41.28-.728a.769.769 0 0 0-.207-.536c-.138-.152-.4-.345-.787-.58l-.808-.492c-.4-.244-.692-.484-.874-.72a1.324 1.324 0 0 1-.275-.835c0-.49.171-.857.513-1.103.343-.244.835-.367 1.476-.367a11.78 11.78 0 0 1 1.015.047c.136.012.28.03.43.055.095.019.143.065.143.138v.357c0 .09-.048.134-.142.134h-.017a21.483 21.483 0 0 0-1.429-.048c-.44 0-.754.057-.942.172-.186.115-.28.32-.28.615 0 .187.067.35.2.491.132.14.368.313.706.516l.763.459c.317.189.571.371.763.546.193.174.331.353.416.538.086.184.128.388.128.613Z" fill="#fff" fill-rule="evenodd" data-name="Path 6"/><path d="M476.956 5919.485c0 .07-.029.11-.086.118-.26.026-.8.04-1.62.04-.592 0-1.036-.122-1.33-.365-.293-.244-.44-.637-.44-1.182v-3.199c0-.541.147-.934.44-1.18.291-.244.735-.367 1.33-.367a25.478 25.478 0 0 1 1.62.049.08.08 0 0 1 .063.039.142.142 0 0 1 .023.079v.414c0 .068-.032.102-.094.102h-1.603c-.293 0-.512.028-.658.083a.478.478 0 0 0-.292.264c-.049.12-.074.293-.074.517v1.157h2.554a.16.16 0 0 1 .118.049.16.16 0 0 1 .049.117v.313a.153.153 0 0 1-.053.118.165.165 0 0 1-.114.049h-2.554v1.396c0 .225.025.398.074.518a.475.475 0 0 0 .292.264c.146.055.365.083.658.083h1.603c.062 0 .094.034.094.102v.422Z" fill="#fff" fill-rule="evenodd" data-name="Path 7"/><path d="M485.931 5919.505c0 .054-.035.08-.105.08h-.585c-.05 0-.085-.003-.101-.013a.375.375 0 0 1-.081-.095l-1.486-2.477H483.354c-.195 0-.5-.008-.914-.024v2.444a.176.176 0 0 1-.04.12.137.137 0 0 1-.11.046h-.446a.14.14 0 0 1-.108-.047.172.172 0 0 1-.043-.12v-5.82c0-.11.066-.17.2-.184.164-.019.377-.034.638-.047.261-.011.536-.018.823-.018.462 0 .867.058 1.214.173.346.115.618.307.818.575.198.267.298.614.298 1.039v.06c0 .444-.119.808-.355 1.093-.237.284-.555.479-.952.584l1.53 2.554c.017.024.024.05.024.077Zm-.998-4.308v-.06c0-.268-.058-.484-.175-.648a.96.96 0 0 0-.52-.351c-.23-.07-.524-.105-.884-.105-.477 0-.781.008-.914.024v2.277c.057 0 .207.003.45.008.245.006.399.009.464.009.357 0 .65-.035.88-.104a.95.95 0 0 0 .52-.357c.12-.17.179-.4.179-.693Z" fill="#fff" fill-rule="evenodd" data-name="Path 8"/><path d="M494.66 5913.55a.113.113 0 0 1-.009.048l-1.53 5.416c-.065.235-.175.399-.331.491a.997.997 0 0 1-.517.138c-.447 0-.728-.21-.845-.63l-1.538-5.415a.115.115 0 0 1-.009-.049c0-.043.015-.077.043-.103a.152.152 0 0 1 .104-.039h.482a.14.14 0 0 1 .096.037.16.16 0 0 1 .055.089l1.445 5.298c.038.117.094.175.167.175.073 0 .125-.058.158-.175l1.457-5.298c.022-.084.07-.126.143-.126h.486c.095 0 .143.048.143.142Z" fill="#fff" fill-rule="evenodd" data-name="Path 9"/><path d="M500.067 5919.42a.172.172 0 0 1-.043.115.133.133 0 0 1-.107.05h-.459a.14.14 0 0 1-.103-.046.161.161 0 0 1-.047-.12v-5.854c0-.04.015-.077.045-.109a.14.14 0 0 1 .105-.049h.46c.04 0 .075.015.104.045.03.03.045.068.045.113v5.855Z" fill="#fff" fill-rule="evenodd" data-name="Path 10"/><path d="M508.67 5919.371c0 .092-.054.148-.163.167-.378.07-.839.105-1.38.105-.27 0-.537-.043-.797-.13a1.915 1.915 0 0 1-.705-.418c-.208-.192-.376-.457-.504-.794-.127-.337-.19-.745-.19-1.224v-1.157c0-.633.106-1.142.319-1.526.212-.385.482-.654.81-.81a2.454 2.454 0 0 1 1.067-.234c.396 0 .86.045 1.397.134.086.011.13.046.13.106v.426c0 .06-.033.09-.098.09h-.024a18.62 18.62 0 0 0-1.397-.073c-.446 0-.8.147-1.06.444-.26.296-.39.777-.39 1.443v1.157c0 .66.131 1.14.393 1.437.26.298.614.447 1.057.447.382 0 .84-.022 1.372-.065h.033c.086 0 .13.045.13.134v.341Z" fill="#fff" fill-rule="evenodd" data-name="Path 11"/><path d="M516.72 5919.485c0 .07-.028.11-.085.118-.26.026-.8.04-1.62.04-.593 0-1.036-.122-1.33-.365-.293-.244-.44-.637-.44-1.182v-3.199c0-.541.146-.934.438-1.18.293-.244.737-.367 1.332-.367a25.476 25.476 0 0 1 1.62.049.08.08 0 0 1 .063.039.142.142 0 0 1 .023.079v.414c0 .068-.032.102-.094.102h-1.604c-.292 0-.511.028-.657.083a.478.478 0 0 0-.293.264c-.048.12-.073.293-.073.517v1.157h2.554a.16.16 0 0 1 .118.049.162.162 0 0 1 .049.117v.313a.153.153 0 0 1-.054.118.165.165 0 0 1-.113.049H514v1.396c0 .225.025.398.073.518a.475.475 0 0 0 .293.264c.146.055.365.083.657.083h1.604c.062 0 .094.034.094.102v.422Z" fill="#fff" fill-rule="evenodd" data-name="Path 12"/><path d="M524.965 5917.983c0 .47-.155.865-.465 1.183-.31.318-.84.477-1.589.477-.433 0-.893-.038-1.38-.114-.065-.01-.108-.026-.129-.046-.02-.02-.03-.055-.03-.104v-.333c0-.09.048-.134.143-.134h.024c.381.033.839.049 1.372.049.468 0 .796-.083.982-.25.187-.166.28-.41.28-.728a.769.769 0 0 0-.207-.536c-.138-.152-.4-.345-.787-.58l-.808-.492c-.4-.244-.692-.484-.875-.72a1.326 1.326 0 0 1-.274-.835c0-.49.171-.857.513-1.103.343-.244.835-.367 1.476-.367a11.768 11.768 0 0 1 1.015.047c.136.012.28.03.43.055.095.019.143.065.143.138v.357c0 .09-.048.134-.142.134h-.017a21.492 21.492 0 0 0-1.429-.048c-.44 0-.755.057-.942.172-.186.115-.28.32-.28.615 0 .187.067.35.2.491.132.14.367.313.706.516l.763.459c.317.189.57.371.763.546.193.174.331.353.416.538.086.184.128.388.128.613Z" fill="#fff" fill-rule="evenodd" data-name="Path 13"/><path d="M539.04 5919.452c0 .07-.028.11-.085.118a7.348 7.348 0 0 1-.652.049c-.336.016-.66.024-.967.024-.345 0-.645-.037-.902-.11a1.125 1.125 0 0 1-.627-.452c-.162-.229-.242-.557-.242-.985v-4.522c0-.041.017-.079.049-.114a.155.155 0 0 1 .118-.053h.422c.046 0 .085.017.118.049a.16.16 0 0 1 .048.118v4.522c0 .225.025.397.073.518a.476.476 0 0 0 .293.264c.146.055.365.083.657.083h1.604c.062 0 .093.034.093.101v.39Z" fill="#fff" fill-rule="evenodd" data-name="Path 14"/><path d="M546.616 5913.923c0 .09-.053.134-.158.134h-1.624v5.363a.175.175 0 0 1-.041.12.133.133 0 0 1-.106.046h-.458a.14.14 0 0 1-.108-.047.172.172 0 0 1-.043-.12v-5.362h-1.62c-.11 0-.166-.045-.166-.134v-.366a.14.14 0 0 1 .047-.103c.03-.03.071-.047.12-.047h3.999c.043 0 .08.015.112.042.03.03.046.065.046.108v.366Z" fill="#fff" fill-rule="evenodd" data-name="Path 15"/><path d="M555.393 5917.057c0 .869-.222 1.517-.666 1.945-.444.427-1.062.64-1.855.64-.211 0-.428-.004-.652-.014a6.94 6.94 0 0 1-.858-.067c-.117-.015-.175-.084-.175-.206v-5.712c0-.12.058-.19.175-.211a6.94 6.94 0 0 1 .35-.04c.115-.008.285-.018.508-.027.224-.01.44-.015.652-.015.528 0 .978.093 1.352.276.374.185.662.471.865.86.203.388.304.871.304 1.45v1.121Zm-.755 0v-1.12c0-.48-.075-.862-.226-1.15a1.303 1.303 0 0 0-.617-.608 2.212 2.212 0 0 0-.923-.179c-.338 0-.645.008-.922.024v4.953c.18.014.486.02.922.02.552 0 .985-.147 1.297-.442.313-.295.469-.795.469-1.498Z" fill="#fff" fill-rule="evenodd" data-name="Path 16"/></g></g><g data-name="Group 36"><path d="M462.859 5879.892c0 .62-.11 1.214-.33 1.78a4.37 4.37 0 0 1-1.045 1.549c-.477.466-1.108.835-1.895 1.11-.786.274-1.714.411-2.782.411-1.544 0-2.941-.163-4.19-.487-.295-.087-.444-.235-.444-.444v-2.165c0-.282.134-.422.401-.422h.065c.541.05 1.281.106 2.22.167.938.062 1.602.092 1.991.092.758 0 1.276-.119 1.554-.357s.417-.635.417-1.19c0-.326-.102-.603-.303-.834-.203-.231-.589-.516-1.159-.856l-3.053-1.818c-.656-.39-1.182-.809-1.575-1.256-.393-.448-.666-.917-.817-1.408a5.29 5.29 0 0 1-.228-1.57c0-1.327.44-2.38 1.321-3.155.88-.776 2.331-1.164 4.352-1.164.801 0 1.678.05 2.63.151.954.101 1.643.213 2.069.336.223.05.335.184.335.4v2.242c0 .245-.126.367-.379.367h-.043a52.834 52.834 0 0 1-1.012-.075c-.25-.021-.59-.045-1.023-.07a66.44 66.44 0 0 0-1.359-.066 34.082 34.082 0 0 0-1.305-.026c-.613 0-1.055.095-1.326.287-.27.19-.406.489-.406.893 0 .303.098.554.293.752.194.198.595.464 1.201.796l2.837 1.526c.729.39 1.319.82 1.77 1.289.45.468.767.965.947 1.488.18.523.27 1.099.27 1.727Z" fill="#fff" fill-rule="evenodd" data-name="Path 17"/><path d="M476.25 5870.776a.38.38 0 0 1-.14.304.488.488 0 0 1-.325.118h-3.594v12.905a.437.437 0 0 1-.444.444h-2.902a.43.43 0 0 1-.314-.13.43.43 0 0 1-.13-.314v-12.905h-3.615a.442.442 0 0 1-.309-.124.392.392 0 0 1-.135-.298v-2.284a.39.39 0 0 1 .135-.298.442.442 0 0 1 .309-.124h11c.122 0 .23.04.324.119.094.08.14.18.14.303v2.284Z" fill="#fff" fill-rule="evenodd" data-name="Path 18"/><path d="M490.443 5877.63c0 2.431-.6 4.225-1.802 5.38-1.202 1.155-2.788 1.732-4.758 1.732-1.956 0-3.538-.577-4.748-1.732-1.208-1.155-1.813-2.949-1.813-5.38v-2.642c0-2.433.6-4.226 1.803-5.381 1.202-1.155 2.787-1.732 4.758-1.732.96 0 1.836.133 2.63.4a5.44 5.44 0 0 1 2.068 1.246c.585.562 1.042 1.302 1.37 2.219.328.917.492 1.999.492 3.248v2.641Zm-3.81 0v-2.642c0-1.321-.223-2.283-.666-2.886-.444-.602-1.139-.904-2.084-.904-.614 0-1.124.132-1.532.396-.408.263-.71.676-.904 1.24-.195.562-.292 1.28-.292 2.154v2.641c0 .88.097 1.599.292 2.154.195.557.49.968.888 1.235.397.267.913.4 1.548.4.945 0 1.64-.301 2.084-.904.443-.602.666-1.564.666-2.885Z" fill="#fff" fill-rule="evenodd" data-name="Path 19"/><path d="M505.903 5884.276c0 .18-.112.271-.336.271h-3.388c-.108 0-.19-.034-.244-.103a2.112 2.112 0 0 1-.2-.34l-2.977-5.609-.239.022c-.158 0-.426-.007-.8-.022a24.447 24.447 0 0 0-.77-.022v5.63a.413.413 0 0 1-.14.314.441.441 0 0 1-.303.13h-2.89a.441.441 0 0 1-.304-.13.412.412 0 0 1-.14-.314v-14.875c0-.36.077-.613.232-.758.155-.144.414-.245.774-.303 1.22-.195 2.718-.292 4.493-.292 1.003 0 1.904.089 2.701.265.798.177 1.494.468 2.09.872.595.404 1.059.943 1.39 1.618.333.675.499 1.485.499 2.43v.293c0 1.112-.26 2.04-.78 2.788a4.516 4.516 0 0 1-2.078 1.64l3.345 6.257a.539.539 0 0 1 .065.238Zm-4.32-10.923v-.292c0-.664-.247-1.159-.741-1.483-.495-.325-1.218-.488-2.171-.488-.628 0-1.201.022-1.721.065v4.255c.317.029.84.043 1.57.043 1.14 0 1.936-.159 2.386-.476.452-.318.677-.859.677-1.624Z" fill="#fff" fill-rule="evenodd" data-name="Path 20"/><path d="M520.583 5884.103a.437.437 0 0 1-.444.444h-2.923a.36.36 0 0 1-.292-.13.475.475 0 0 1-.108-.314v-5.391h-4.818v5.391c0 .13-.038.237-.114.32a.384.384 0 0 1-.298.124h-2.933a.44.44 0 0 1-.303-.13.411.411 0 0 1-.141-.314v-11.302c0-1.249.233-2.238.698-2.967.465-.729 1.09-1.23 1.873-1.504.783-.275 1.723-.412 2.82-.412h1.613c.809 0 1.537.074 2.187.222.65.148 1.207.397 1.673.747.465.35.833.848 1.104 1.494.27.646.406 1.452.406 2.42v11.302Zm-3.767-8.51v-2.792c0-.405-.047-.724-.141-.958a.87.87 0 0 0-.493-.498c-.234-.098-.557-.147-.969-.147H513.6c-.606 0-1.025.114-1.256.342-.23.227-.346.647-.346 1.26v2.794h4.818Z" fill="#fff" fill-rule="evenodd" data-name="Path 21"/><path d="M534.95 5871.069c0 .108-.028.182-.082.222-.054.04-.14.06-.255.06h-.065c-.108-.008-.73-.039-1.867-.093a60.497 60.497 0 0 0-2.744-.08c-.96 0-1.684.284-2.17.854-.488.57-.732 1.541-.732 2.912v2.772c0 1.378.246 2.351.736 2.917.491.567 1.072.85 1.743.85.614 0 1.184-.021 1.71-.065v-5.099c0-.115.042-.218.126-.309a.39.39 0 0 1 .297-.135h2.837c.108 0 .209.047.303.141.093.094.14.195.14.303v7.448c0 .167-.032.286-.097.358-.065.072-.18.122-.346.151-1.502.31-3.158.466-4.97.466-.967 0-1.934-.217-2.9-.65-.968-.433-1.78-1.174-2.437-2.225-.657-1.05-.985-2.44-.985-4.173v-2.75c0-1.768.321-3.177.963-4.227.643-1.05 1.466-1.787 2.469-2.209 1.003-.422 2.107-.633 3.313-.633.967 0 1.807.049 2.522.146.715.097 1.418.218 2.111.363.253.05.38.162.38.335v2.35Z" fill="#fff" fill-rule="evenodd" data-name="Path 22"/><path d="M548.005 5883.995c0 .267-.148.422-.444.465-.526.073-1.118.137-1.775.195-.657.058-1.498.087-2.522.087-.794 0-1.505-.067-2.133-.2a4.598 4.598 0 0 1-1.678-.71c-.491-.338-.877-.826-1.159-1.461-.281-.635-.422-1.433-.422-2.393v-7.361c0-1.27.24-2.256.72-2.956a3.523 3.523 0 0 1 1.9-1.418c.787-.245 1.718-.368 2.793-.368 1.025 0 1.89.03 2.593.092.704.061 1.265.128 1.683.2.296.044.444.188.444.433v2.068a.429.429 0 0 1-.13.314.43.43 0 0 1-.314.13h-4.503c-.527 0-.895.108-1.104.325-.21.216-.314.61-.314 1.18v2.024h5.748c.123 0 .227.043.314.13.086.087.13.191.13.314v2.1a.41.41 0 0 1-.14.314.439.439 0 0 1-.304.13h-5.748v2.35c0 .562.104.954.314 1.174.209.22.577.33 1.104.33h4.503c.123 0 .227.044.314.13.087.087.13.191.13.314v2.068Z" fill="#fff" fill-rule="evenodd" data-name="Path 23"/><path d="M568.78 5877.358c0 .13-.043.23-.13.298a.49.49 0 0 1-.314.103h-1.396v6.344a.428.428 0 0 1-.4.422c-.542.044-1.029.078-1.462.103-.433.025-.908.047-1.424.065-.516.018-1.066.027-1.65.027-.96 0-1.818-.075-2.572-.227-.754-.151-1.407-.417-1.96-.796-.552-.379-.974-.896-1.266-1.553-.293-.657-.439-1.49-.439-2.501 0-.607.118-1.22.352-1.84.235-.621.561-1.152.98-1.592-.447-.541-.785-1.073-1.012-1.597a4.29 4.29 0 0 1-.341-1.727c0-.996.16-1.824.482-2.484.32-.66.768-1.173 1.342-1.537.574-.365 1.24-.621 1.997-.769.758-.148 1.628-.222 2.61-.222.476 0 1.028.018 1.656.054.628.036 1.176.08 1.645.13.47.05.863.1 1.18.152.188.028.282.122.282.281v2.414c0 .08-.03.148-.092.206a.327.327 0 0 1-.233.086h-4.482c-.967 0-1.649.107-2.046.32-.397.213-.596.67-.596 1.37 0 .303.056.636.168 1.001.112.364.233.658.363.882h8.314c.138 0 .246.04.325.12.08.079.12.187.12.324v2.143Zm-5.337 4.147v-3.746h-3.42c-.34.513-.51 1.14-.51 1.884 0 .721.211 1.213.633 1.472.423.26 1.042.39 1.857.39h1.44Z" fill="#fff" fill-rule="evenodd" data-name="Path 24"/><path d="M456.314 5891.476a.438.438 0 0 1-.444.444h-4.503c-.527 0-.895.108-1.104.324-.21.217-.314.61-.314 1.18v2.003h5.748c.123 0 .227.043.314.13.087.086.13.191.13.314v2.1a.412.412 0 0 1-.14.314.44.44 0 0 1-.304.13h-5.748v6.474a.437.437 0 0 1-.444.444h-2.88a.442.442 0 0 1-.303-.13.412.412 0 0 1-.14-.314v-11.465c0-1.27.24-2.255.72-2.955a3.523 3.523 0 0 1 1.9-1.418c.786-.246 1.717-.369 2.792-.369 1.025 0 1.89.031 2.593.092a21.4 21.4 0 0 1 1.683.2c.297.044.444.192.444.445v2.057Z" fill="#fff" fill-rule="evenodd" data-name="Path 25"/><path d="M471.904 5903.622c0 .534-.1.904-.298 1.11-.198.206-.543.348-1.034.428-.44.065-1.229.142-2.365.232-1.137.09-1.958.136-2.463.136-2.143 0-3.782-.462-4.915-1.386-1.133-.924-1.7-2.573-1.7-4.947v-9.917a.39.39 0 0 1 .136-.298.442.442 0 0 1 .308-.124h2.912c.116 0 .218.041.309.124a.39.39 0 0 1 .135.298v9.917c0 .779.078 1.396.233 1.851.155.454.42.788.796 1.001.375.213.895.32 1.558.32.787 0 1.653-.054 2.599-.163v-12.926c0-.115.041-.215.124-.298a.431.431 0 0 1 .32-.124h2.88a.49.49 0 0 1 .324.119c.094.08.14.18.14.303v14.344Z" fill="#fff" fill-rule="evenodd" data-name="Path 26"/><path d="M484.473 5904.781c0 .252-.148.407-.444.465-.91.188-2.115.282-3.616.282-.794 0-1.507-.067-2.138-.2a4.709 4.709 0 0 1-1.689-.704c-.494-.336-.882-.823-1.164-1.462-.281-.638-.422-1.438-.422-2.398V5889.3c0-.109.047-.21.14-.303a.424.424 0 0 1 .304-.141h2.912c.108 0 .21.047.303.14.094.094.141.195.141.304v11.464c0 .563.104.955.314 1.175.21.22.578.33 1.104.33h3.81c.11 0 .21.047.304.141.094.094.14.195.14.303v2.068Z" fill="#fff" fill-rule="evenodd" data-name="Path 27"/><path d="M496.576 5891.476a.437.437 0 0 1-.444.444h-4.503c-.527 0-.895.108-1.104.324-.21.217-.314.61-.314 1.18v2.003h5.748c.123 0 .228.043.314.13.087.086.13.191.13.314v2.1a.411.411 0 0 1-.14.314.44.44 0 0 1-.304.13h-5.748v6.474a.437.437 0 0 1-.444.444h-2.88a.442.442 0 0 1-.303-.13.412.412 0 0 1-.14-.314v-11.465c0-1.27.239-2.255.719-2.955a3.524 3.524 0 0 1 1.9-1.418c.787-.246 1.718-.369 2.793-.369 1.025 0 1.89.031 2.593.092.704.062 1.265.129 1.683.2.296.044.444.192.444.445v2.057Z" fill="#fff" fill-rule="evenodd" data-name="Path 28"/><path d="M503.191 5904.889c0 .13-.041.237-.125.32a.405.405 0 0 1-.297.124h-2.977a.37.37 0 0 1-.282-.13.448.448 0 0 1-.119-.314v-15.611c0-.115.038-.215.114-.298a.371.371 0 0 1 .287-.124h2.977a.41.41 0 0 1 .303.119c.08.08.12.18.12.303v15.611Z" fill="#fff" fill-rule="evenodd" data-name="Path 29"/><path d="M515.76 5904.781c0 .252-.148.407-.444.465-.91.188-2.115.282-3.616.282-.794 0-1.506-.067-2.138-.2a4.711 4.711 0 0 1-1.689-.704c-.494-.336-.882-.823-1.163-1.462-.282-.638-.423-1.438-.423-2.398V5889.3c0-.109.047-.21.14-.303a.425.425 0 0 1 .304-.141h2.912c.109 0 .21.047.304.14.093.094.14.195.14.304v11.464c0 .563.105.955.314 1.175.21.22.577.33 1.105.33h3.81c.108 0 .21.047.303.141.094.094.141.195.141.303v2.068Z" fill="#fff" fill-rule="evenodd" data-name="Path 30"/><path d="M532.79 5905.019c0 .21-.127.314-.38.314h-2.923a.309.309 0 0 1-.254-.136.494.494 0 0 1-.103-.308v-9.246c0-.115-.036-.173-.108-.173-.065 0-.127.051-.184.152l-1.992 3.66a.712.712 0 0 1-.66.378h-1.776a.751.751 0 0 1-.671-.379l-1.993-3.66c-.057-.1-.115-.15-.173-.15-.079 0-.118.057-.118.172v9.246c0 .13-.035.237-.103.32a.307.307 0 0 1-.244.124h-2.934c-.253 0-.379-.105-.379-.314v-15.405a.71.71 0 0 1 .227-.553.823.823 0 0 1 .574-.205h2.09c.433 0 .758.202.974.606l3.389 6.312c.093.194.177.292.249.292.065 0 .144-.098.238-.292l3.389-6.312c.216-.404.544-.606.984-.606h2.079c.238 0 .431.07.58.21.147.142.221.331.221.57v15.383Z" fill="#fff" fill-rule="evenodd" data-name="Path 31"/><path d="M545.954 5904.781c0 .267-.148.422-.444.465-.527.073-1.119.137-1.776.195-.656.058-1.497.087-2.522.087-.794 0-1.505-.067-2.133-.2a4.604 4.604 0 0 1-1.678-.71c-.49-.339-.877-.826-1.158-1.461-.282-.635-.423-1.433-.423-2.393v-7.361c0-1.27.24-2.256.72-2.956a3.524 3.524 0 0 1 1.9-1.418c.787-.245 1.718-.368 2.794-.368 1.025 0 1.889.03 2.592.092a21.43 21.43 0 0 1 1.684.2c.296.044.444.188.444.433v2.068a.427.427 0 0 1-.13.314.428.428 0 0 1-.314.13h-4.504c-.527 0-.895.108-1.104.325-.21.216-.314.61-.314 1.18v2.024h5.749c.122 0 .227.043.313.13.087.087.13.191.13.314v2.1a.412.412 0 0 1-.14.314.44.44 0 0 1-.303.13h-5.75v2.35c0 .562.106.954.315 1.174.21.22.577.33 1.104.33h4.504c.122 0 .227.043.314.13.086.087.13.191.13.314v2.068Z" fill="#fff" fill-rule="evenodd" data-name="Path 32"/><path d="M561.565 5904.89c0 .129-.042.236-.125.318a.406.406 0 0 1-.297.125h-2.967a.361.361 0 0 1-.292-.13.476.476 0 0 1-.109-.314v-9.884c0-.823-.091-1.456-.275-1.9-.185-.444-.466-.753-.845-.926-.379-.173-.886-.26-1.52-.26-1.04 0-1.902.044-2.588.13v12.84c0 .13-.042.237-.125.32a.407.407 0 0 1-.298.124h-2.955a.407.407 0 0 1-.298-.125.43.43 0 0 1-.124-.319v-14.474c0-.49.079-.827.238-1.007.159-.18.458-.303.899-.368.187-.03.624-.08 1.31-.152a45.423 45.423 0 0 1 2.019-.168c.66-.04 1.16-.06 1.5-.06 1.536 0 2.8.178 3.788.532.989.353 1.747.995 2.274 1.926.526.931.79 2.227.79 3.887v9.884Z" fill="#fff" fill-rule="evenodd" data-name="Path 33"/><path d="M575 5891.562a.38.38 0 0 1-.14.304.488.488 0 0 1-.326.118h-3.594v12.905a.436.436 0 0 1-.443.444h-2.902a.428.428 0 0 1-.314-.13.427.427 0 0 1-.13-.314v-12.905h-3.616a.443.443 0 0 1-.309-.124.392.392 0 0 1-.135-.298v-2.284a.39.39 0 0 1 .135-.298.443.443 0 0 1 .309-.124h11c.122 0 .23.04.324.119.094.08.141.18.141.303v2.284Z" fill="#fff" fill-rule="evenodd" data-name="Path 34"/></g></g></svg>