<svg xmlns="http://www.w3.org/2000/svg" viewBox="373 5860 59 61" width="59" height="61"><path d="M430.258 5896.155v23.801H375v-14.46l.058-.019c2.446 3.44 5.564 6.178 9.321 7.99 14.126 6.814 32.94-1.576 45.885-19.113l-.006 1.8Z" fill="#e50019" fill-rule="evenodd"/><path d="M392.805 5905.824h-.009c-2.102 0-4.16-.304-6.114-.904l-.19-.075-.06-.024-.047-.019-.01-.004c-.142-.055-.275-.107-.406-.152l-.043-.02-.07-.028c-.608-.231-1.087-.415-1.868-.74-3.683-1.774-6.69-4.62-8.941-8.459l-.043-.08v-30.617h55.248v4.374l10.696-8.076.653 26.335-2.377-22.462-8.972 6.81-12.048 9.084 6.627 3.196c-4.118 6.606-9.304 12.139-14.995 16.002-5.643 3.833-11.533 5.859-17.031 5.859Zm-14.696-18.318h-.084c-.265 0-.442.161-.498.454l-.406 2.332v.072c0 .194.15.35.39.406 1.351.354 2.822.525 4.498.525 2.131 0 3.93-.49 5.202-1.417 1.461-1.058 2.202-2.634 2.202-4.685 0-1.45-.832-2.695-2.544-3.809l-2.758-1.811c-.958-.633-1.218-.876-1.218-1.381 0-1.266.846-1.525 2.117-1.525 1.017 0 2.653.084 4.73.243a2.303 2.303 0 0 1 .23.012l.02.004.028.004h.04c.255 0 .428-.144.486-.406l.425-2.409v-.095c0-.166-.106-.286-.29-.33-.874-.243-3.228-.526-4.957-.526-2.04 0-3.671.38-4.847 1.127-1.426.905-2.15 2.337-2.15 4.255 0 1.485.76 2.797 2.138 3.694l2.938 1.93c.856.557 1.238 1.072 1.238 1.668 0 1.297-.825 1.954-2.452 1.954-.934 0-3.533-.19-4.478-.286Zm26.386-.004h-.072c-.266 0-.453.17-.502.454l-.406 2.336v.068c0 .198.147.353.383.406 1.327.353 2.8.525 4.502.525 2.128 0 3.929-.49 5.205-1.415 1.46-1.06 2.202-2.635 2.202-4.683 0-1.448-.833-2.695-2.547-3.813l-2.763-1.811c-.958-.627-1.218-.87-1.218-1.381 0-1.266.848-1.525 2.122-1.525 1.447 0 3.743.17 4.723.242h.007l.19.015.083.006h.048c.26 0 .43-.144.478-.406l.425-2.405v-.095c0-.172-.097-.288-.282-.334-.875-.243-3.23-.526-4.956-.526-2.037 0-3.669.38-4.851 1.13-1.43.907-2.154 2.338-2.154 4.256 0 1.48.762 2.791 2.146 3.694l2.929 1.926c.856.56 1.238 1.074 1.238 1.668 0 1.297-.825 1.955-2.452 1.955-.92 0-3.526-.192-4.478-.287Zm-4.98-14.338c-1.42 0-3.042.104-4.287.872-1.257.772-2.046 2.162-2.412 4.247l-2.165 12.32v.095c0 .227.155.378.386.378h3.097a.609.609 0 0 0 .564-.473l1.223-6.958h6.166a.603.603 0 0 0 .569-.478l.386-2.261v-.095c0-.229-.155-.383-.386-.383h-6.165l.377-2.145c.21-1.211.668-1.62 1.816-1.62h4.831c.255 0 .497-.208.55-.474l.406-2.216a.22.22 0 0 1 .012-.077.115.115 0 0 1 .005-.019l.002-.006a.048.048 0 0 0 .005-.018c0-.204-.129-.31-.43-.359l-.072-.011a.918.918 0 0 0-.037-.006l-.023-.004-.071-.01c-.788-.12-1.978-.299-4.347-.299Z" fill="#e50019" fill-rule="evenodd"/></svg>
